<svg width="253" height="253" viewBox="0 0 253 253" fill="none" xmlns="http://www.w3.org/2000/svg">
<path d="M111.437 27H109.806L113.47 16.8182H115.245L118.909 27H117.278L114.4 18.6676H114.32L111.437 27ZM111.71 23.0128H117V24.3054H111.71V23.0128ZM120.26 29.8636V19.3636H121.712V20.6016H121.836C121.922 20.4425 122.046 20.2585 122.209 20.0497C122.371 19.8409 122.597 19.6586 122.885 19.5028C123.173 19.3438 123.555 19.2642 124.028 19.2642C124.645 19.2642 125.195 19.42 125.679 19.7315C126.163 20.0431 126.542 20.4922 126.818 21.0788C127.096 21.6655 127.235 22.3714 127.235 23.1967C127.235 24.022 127.098 24.7296 126.823 25.3196C126.547 25.9062 126.17 26.3587 125.689 26.6768C125.208 26.9917 124.66 27.1491 124.043 27.1491C123.579 27.1491 123.2 27.0713 122.905 26.9155C122.613 26.7597 122.385 26.5774 122.219 26.3686C122.053 26.1598 121.926 25.9742 121.836 25.8118H121.747V29.8636H120.26ZM121.717 23.1818C121.717 23.7187 121.795 24.1894 121.95 24.5938C122.106 24.9981 122.332 25.3146 122.627 25.5433C122.921 25.7687 123.283 25.8814 123.71 25.8814C124.154 25.8814 124.526 25.7637 124.824 25.5284C125.122 25.2898 125.348 24.9666 125.5 24.5589C125.656 24.1513 125.734 23.6922 125.734 23.1818C125.734 22.678 125.658 22.2256 125.505 21.8246C125.356 21.4235 125.131 21.107 124.829 20.875C124.531 20.643 124.158 20.527 123.71 20.527C123.279 20.527 122.915 20.638 122.617 20.8601C122.322 21.0821 122.098 21.392 121.945 21.7898C121.793 22.1875 121.717 22.6515 121.717 23.1818ZM128.901 29.8636V19.3636H130.352V20.6016H130.477C130.563 20.4425 130.687 20.2585 130.85 20.0497C131.012 19.8409 131.237 19.6586 131.526 19.5028C131.814 19.3438 132.195 19.2642 132.669 19.2642C133.286 19.2642 133.836 19.42 134.32 19.7315C134.804 20.0431 135.183 20.4922 135.458 21.0788C135.737 21.6655 135.876 22.3714 135.876 23.1967C135.876 24.022 135.738 24.7296 135.463 25.3196C135.188 25.9062 134.81 26.3587 134.33 26.6768C133.849 26.9917 133.301 27.1491 132.684 27.1491C132.22 27.1491 131.841 27.0713 131.546 26.9155C131.254 26.7597 131.025 26.5774 130.859 26.3686C130.694 26.1598 130.566 25.9742 130.477 25.8118H130.387V29.8636H128.901ZM130.357 23.1818C130.357 23.7187 130.435 24.1894 130.591 24.5938C130.747 24.9981 130.972 25.3146 131.267 25.5433C131.562 25.7687 131.923 25.8814 132.351 25.8814C132.795 25.8814 133.166 25.7637 133.465 25.5284C133.763 25.2898 133.988 24.9666 134.141 24.5589C134.296 24.1513 134.374 23.6922 134.374 23.1818C134.374 22.678 134.298 22.2256 134.146 21.8246C133.997 21.4235 133.771 21.107 133.47 20.875C133.171 20.643 132.798 20.527 132.351 20.527C131.92 20.527 131.555 20.638 131.257 20.8601C130.962 21.0821 130.738 21.392 130.586 21.7898C130.434 22.1875 130.357 22.6515 130.357 23.1818Z" fill="black"/>
<path d="M164.745 40V29.8182H168.374C169.163 29.8182 169.817 29.9541 170.338 30.2259C170.861 30.4976 171.252 30.8738 171.511 31.3544C171.769 31.8317 171.899 32.3835 171.899 33.0099C171.899 33.633 171.768 34.1816 171.506 34.6555C171.247 35.1262 170.856 35.4924 170.333 35.7543C169.812 36.0161 169.158 36.147 168.369 36.147H165.62V34.8246H168.23C168.727 34.8246 169.131 34.7533 169.443 34.6108C169.758 34.4683 169.988 34.2611 170.134 33.9893C170.28 33.7176 170.353 33.3911 170.353 33.0099C170.353 32.6255 170.278 32.2924 170.129 32.0107C169.983 31.7289 169.753 31.5135 169.438 31.3643C169.126 31.2119 168.717 31.1357 168.21 31.1357H166.281V40H164.745ZM169.771 35.4062L172.286 40H170.536L168.071 35.4062H169.771ZM176.844 40.1541C176.092 40.1541 175.444 39.9934 174.9 39.6719C174.36 39.3471 173.942 38.8913 173.647 38.3047C173.356 37.7147 173.21 37.0237 173.21 36.2315C173.21 35.4493 173.356 34.7599 173.647 34.1634C173.942 33.5668 174.353 33.1011 174.88 32.7663C175.411 32.4316 176.031 32.2642 176.74 32.2642C177.171 32.2642 177.588 32.3355 177.993 32.478C178.397 32.6205 178.76 32.8442 179.081 33.1491C179.403 33.4541 179.656 33.8501 179.842 34.3374C180.028 34.8213 180.12 35.4096 180.12 36.1023V36.6293H174.05V35.5156H178.664C178.664 35.1245 178.584 34.7782 178.425 34.4766C178.266 34.1716 178.042 33.9313 177.754 33.7557C177.469 33.58 177.134 33.4922 176.75 33.4922C176.332 33.4922 175.968 33.5949 175.656 33.8004C175.348 34.0026 175.109 34.2678 174.94 34.5959C174.774 34.9207 174.691 35.2737 174.691 35.6548V36.5249C174.691 37.0353 174.781 37.4695 174.96 37.8274C175.142 38.1854 175.396 38.4588 175.721 38.6477C176.045 38.8333 176.425 38.9261 176.859 38.9261C177.141 38.9261 177.398 38.8864 177.63 38.8068C177.862 38.724 178.062 38.6013 178.231 38.4389C178.4 38.2765 178.53 38.076 178.619 37.8374L180.026 38.0909C179.913 38.5052 179.711 38.8681 179.419 39.1797C179.131 39.4879 178.768 39.7282 178.331 39.9006C177.897 40.0696 177.401 40.1541 176.844 40.1541ZM181.77 42.8636V32.3636H183.222V33.6016H183.346C183.432 33.4425 183.556 33.2585 183.719 33.0497C183.881 32.8409 184.106 32.6586 184.395 32.5028C184.683 32.3438 185.064 32.2642 185.538 32.2642C186.155 32.2642 186.705 32.42 187.189 32.7315C187.673 33.0431 188.052 33.4922 188.327 34.0788C188.606 34.6655 188.745 35.3714 188.745 36.1967C188.745 37.022 188.607 37.7296 188.332 38.3196C188.057 38.9062 187.679 39.3587 187.199 39.6768C186.718 39.9917 186.17 40.1491 185.553 40.1491C185.089 40.1491 184.71 40.0713 184.415 39.9155C184.123 39.7597 183.894 39.5774 183.729 39.3686C183.563 39.1598 183.435 38.9742 183.346 38.8118H183.256V42.8636H181.77ZM183.226 36.1818C183.226 36.7187 183.304 37.1894 183.46 37.5938C183.616 37.9981 183.841 38.3146 184.136 38.5433C184.431 38.7687 184.793 38.8814 185.22 38.8814C185.664 38.8814 186.035 38.7637 186.334 38.5284C186.632 38.2898 186.857 37.9666 187.01 37.5589C187.166 37.1513 187.244 36.6922 187.244 36.1818C187.244 35.678 187.167 35.2256 187.015 34.8246C186.866 34.4235 186.64 34.107 186.339 33.875C186.04 33.643 185.668 33.527 185.22 33.527C184.789 33.527 184.425 33.638 184.126 33.8601C183.831 34.0821 183.608 34.392 183.455 34.7898C183.303 35.1875 183.226 35.6515 183.226 36.1818ZM193.627 40.1541C192.911 40.1541 192.286 39.9901 191.753 39.6619C191.219 39.3338 190.805 38.8748 190.51 38.2848C190.215 37.6948 190.067 37.0054 190.067 36.2166C190.067 35.4245 190.215 34.7318 190.51 34.1385C190.805 33.5452 191.219 33.0845 191.753 32.7564C192.286 32.4283 192.911 32.2642 193.627 32.2642C194.343 32.2642 194.968 32.4283 195.501 32.7564C196.035 33.0845 196.449 33.5452 196.744 34.1385C197.039 34.7318 197.187 35.4245 197.187 36.2166C197.187 37.0054 197.039 37.6948 196.744 38.2848C196.449 38.8748 196.035 39.3338 195.501 39.6619C194.968 39.9901 194.343 40.1541 193.627 40.1541ZM193.632 38.9062C194.096 38.9062 194.48 38.7836 194.785 38.5384C195.09 38.2931 195.316 37.9666 195.462 37.5589C195.611 37.1513 195.685 36.7022 195.685 36.2116C195.685 35.7244 195.611 35.277 195.462 34.8693C195.316 34.4583 195.09 34.1286 194.785 33.88C194.48 33.6314 194.096 33.5071 193.632 33.5071C193.165 33.5071 192.777 33.6314 192.469 33.88C192.164 34.1286 191.937 34.4583 191.788 34.8693C191.642 35.277 191.569 35.7244 191.569 36.2116C191.569 36.7022 191.642 37.1513 191.788 37.5589C191.937 37.9666 192.164 38.2931 192.469 38.5384C192.777 38.7836 193.165 38.9062 193.632 38.9062ZM198.846 40V32.3636H200.283V33.5767H200.362C200.502 33.1657 200.747 32.8426 201.098 32.6072C201.453 32.3686 201.854 32.2493 202.301 32.2493C202.394 32.2493 202.503 32.2526 202.629 32.2592C202.759 32.2659 202.86 32.2741 202.933 32.2841V33.706C202.873 33.6894 202.767 33.6712 202.614 33.6513C202.462 33.6281 202.31 33.6165 202.157 33.6165C201.806 33.6165 201.493 33.6911 201.217 33.8402C200.946 33.986 200.73 34.1899 200.571 34.4517C200.412 34.7102 200.332 35.0052 200.332 35.3366V40H198.846ZM208.235 32.3636V33.5568H204.064V32.3636H208.235ZM205.182 30.5341H206.669V37.7578C206.669 38.0462 206.712 38.2633 206.798 38.4091C206.884 38.5516 206.995 38.6494 207.131 38.7024C207.27 38.7521 207.421 38.777 207.584 38.777C207.703 38.777 207.807 38.7687 207.897 38.7521C207.986 38.7356 208.056 38.7223 208.106 38.7124L208.374 39.9403C208.288 39.9735 208.165 40.0066 208.006 40.0398C207.847 40.0762 207.648 40.0961 207.41 40.0994C207.018 40.1061 206.654 40.0365 206.316 39.8906C205.978 39.7448 205.704 39.5194 205.495 39.2145C205.287 38.9096 205.182 38.5268 205.182 38.0661V30.5341ZM209.879 40V32.3636H211.366V40H209.879ZM210.63 31.1854C210.371 31.1854 210.149 31.0992 209.964 30.9268C209.781 30.7512 209.69 30.5424 209.69 30.3004C209.69 30.0552 209.781 29.8464 209.964 29.674C210.149 29.4983 210.371 29.4105 210.63 29.4105C210.888 29.4105 211.109 29.4983 211.291 29.674C211.477 29.8464 211.57 30.0552 211.57 30.3004C211.57 30.5424 211.477 30.7512 211.291 30.9268C211.109 31.0992 210.888 31.1854 210.63 31.1854ZM214.852 35.4659V40H213.366V32.3636H214.792V33.6065H214.887C215.062 33.2022 215.338 32.8774 215.712 32.6321C216.09 32.3868 216.566 32.2642 217.139 32.2642C217.659 32.2642 218.115 32.3736 218.506 32.5923C218.897 32.8078 219.2 33.1293 219.416 33.5568C219.631 33.9844 219.739 34.513 219.739 35.1428V40H218.253V35.3217C218.253 34.7682 218.108 34.3357 217.82 34.0241C217.532 33.7093 217.136 33.5518 216.632 33.5518C216.287 33.5518 215.981 33.6264 215.712 33.7756C215.447 33.9247 215.236 34.1435 215.081 34.4318C214.928 34.7169 214.852 35.0616 214.852 35.4659ZM224.934 43.0227C224.328 43.0227 223.806 42.9432 223.368 42.7841C222.934 42.625 222.58 42.4145 222.304 42.1527C222.029 41.8909 221.824 41.6042 221.688 41.2926L222.966 40.7656C223.055 40.9115 223.174 41.0656 223.324 41.228C223.476 41.3937 223.682 41.5346 223.94 41.6506C224.202 41.7666 224.538 41.8246 224.949 41.8246C225.513 41.8246 225.978 41.687 226.346 41.4119C226.714 41.1402 226.898 40.706 226.898 40.1094V38.608H226.804C226.714 38.7704 226.585 38.951 226.416 39.1499C226.25 39.3487 226.022 39.5211 225.73 39.6669C225.438 39.8127 225.059 39.8857 224.591 39.8857C223.988 39.8857 223.445 39.7448 222.961 39.4631C222.48 39.178 222.099 38.7588 221.817 38.2053C221.539 37.6484 221.4 36.964 221.4 36.152C221.4 35.34 221.537 34.6439 221.812 34.0639C222.091 33.4839 222.472 33.0398 222.956 32.7315C223.44 32.42 223.988 32.2642 224.601 32.2642C225.075 32.2642 225.458 32.3438 225.75 32.5028C226.041 32.6586 226.268 32.8409 226.431 33.0497C226.597 33.2585 226.724 33.4425 226.814 33.6016H226.923V32.3636H228.38V40.169C228.38 40.8253 228.227 41.3639 227.922 41.7848C227.617 42.2057 227.205 42.5173 226.684 42.7195C226.167 42.9216 225.584 43.0227 224.934 43.0227ZM224.919 38.6527C225.347 38.6527 225.708 38.5533 226.003 38.3544C226.302 38.1522 226.527 37.8639 226.679 37.4893C226.835 37.1115 226.913 36.6591 226.913 36.1321C226.913 35.6184 226.837 35.166 226.684 34.7749C226.532 34.3838 226.308 34.0788 226.013 33.8601C225.718 33.638 225.354 33.527 224.919 33.527C224.472 33.527 224.099 33.643 223.801 33.875C223.503 34.1037 223.277 34.4152 223.125 34.8097C222.976 35.2041 222.901 35.6449 222.901 36.1321C222.901 36.6326 222.977 37.0717 223.13 37.4496C223.282 37.8274 223.508 38.1224 223.806 38.3345C224.107 38.5466 224.479 38.6527 224.919 38.6527Z" fill="black"/>
<path d="M100.365 238V227.818H103.994C104.786 227.818 105.442 227.962 105.963 228.251C106.483 228.539 106.873 228.933 107.131 229.434C107.39 229.931 107.519 230.491 107.519 231.114C107.519 231.741 107.388 232.304 107.126 232.805C106.868 233.302 106.476 233.696 105.953 233.988C105.432 234.276 104.778 234.42 103.989 234.42H101.493V233.118H103.85C104.35 233.118 104.756 233.032 105.068 232.859C105.379 232.684 105.608 232.445 105.754 232.143C105.9 231.842 105.973 231.499 105.973 231.114C105.973 230.73 105.9 230.388 105.754 230.09C105.608 229.792 105.378 229.558 105.063 229.389C104.751 229.22 104.34 229.136 103.83 229.136H101.901V238H100.365ZM112.321 238.154C111.605 238.154 110.981 237.99 110.447 237.662C109.913 237.334 109.499 236.875 109.204 236.285C108.909 235.695 108.762 235.005 108.762 234.217C108.762 233.424 108.909 232.732 109.204 232.138C109.499 231.545 109.913 231.085 110.447 230.756C110.981 230.428 111.605 230.264 112.321 230.264C113.037 230.264 113.662 230.428 114.196 230.756C114.729 231.085 115.144 231.545 115.439 232.138C115.734 232.732 115.881 233.424 115.881 234.217C115.881 235.005 115.734 235.695 115.439 236.285C115.144 236.875 114.729 237.334 114.196 237.662C113.662 237.99 113.037 238.154 112.321 238.154ZM112.326 236.906C112.79 236.906 113.175 236.784 113.48 236.538C113.785 236.293 114.01 235.967 114.156 235.559C114.305 235.151 114.38 234.702 114.38 234.212C114.38 233.724 114.305 233.277 114.156 232.869C114.01 232.458 113.785 232.129 113.48 231.88C113.175 231.631 112.79 231.507 112.326 231.507C111.859 231.507 111.471 231.631 111.163 231.88C110.858 232.129 110.631 232.458 110.482 232.869C110.336 233.277 110.263 233.724 110.263 234.212C110.263 234.702 110.336 235.151 110.482 235.559C110.631 235.967 110.858 236.293 111.163 236.538C111.471 236.784 111.859 236.906 112.326 236.906ZM117.54 238V230.364H118.977V231.577H119.057C119.196 231.166 119.441 230.843 119.792 230.607C120.147 230.369 120.548 230.249 120.996 230.249C121.088 230.249 121.198 230.253 121.324 230.259C121.453 230.266 121.554 230.274 121.627 230.284V231.706C121.567 231.689 121.461 231.671 121.309 231.651C121.156 231.628 121.004 231.616 120.851 231.616C120.5 231.616 120.187 231.691 119.912 231.84C119.64 231.986 119.425 232.19 119.265 232.452C119.106 232.71 119.027 233.005 119.027 233.337V238H117.54ZM126.929 230.364V231.557H122.758V230.364H126.929ZM123.877 228.534H125.363V235.758C125.363 236.046 125.406 236.263 125.492 236.409C125.579 236.552 125.69 236.649 125.825 236.702C125.965 236.752 126.115 236.777 126.278 236.777C126.397 236.777 126.502 236.769 126.591 236.752C126.681 236.736 126.75 236.722 126.8 236.712L127.068 237.94C126.982 237.973 126.86 238.007 126.7 238.04C126.541 238.076 126.343 238.096 126.104 238.099C125.713 238.106 125.348 238.036 125.01 237.891C124.672 237.745 124.399 237.519 124.19 237.214C123.981 236.91 123.877 236.527 123.877 236.066V228.534ZM130.796 238.169C130.312 238.169 129.874 238.08 129.483 237.901C129.092 237.718 128.782 237.455 128.554 237.11C128.328 236.765 128.216 236.343 128.216 235.842C128.216 235.411 128.298 235.057 128.464 234.778C128.63 234.5 128.854 234.28 129.135 234.117C129.417 233.955 129.732 233.832 130.08 233.749C130.428 233.666 130.783 233.603 131.144 233.56C131.601 233.507 131.972 233.464 132.257 233.431C132.542 233.395 132.75 233.337 132.879 233.257C133.008 233.178 133.073 233.048 133.073 232.869V232.835C133.073 232.4 132.95 232.064 132.705 231.825C132.463 231.587 132.102 231.467 131.621 231.467C131.121 231.467 130.726 231.578 130.438 231.8C130.153 232.019 129.956 232.263 129.846 232.531L128.449 232.213C128.615 231.749 128.857 231.375 129.175 231.089C129.497 230.801 129.866 230.592 130.284 230.463C130.701 230.33 131.141 230.264 131.601 230.264C131.906 230.264 132.229 230.301 132.571 230.374C132.915 230.443 133.237 230.572 133.535 230.761C133.837 230.95 134.084 231.22 134.276 231.572C134.468 231.92 134.564 232.372 134.564 232.929V238H133.113V236.956H133.053C132.957 237.148 132.813 237.337 132.62 237.523C132.428 237.708 132.181 237.862 131.88 237.985C131.578 238.108 131.217 238.169 130.796 238.169ZM131.119 236.976C131.53 236.976 131.881 236.895 132.173 236.732C132.468 236.57 132.692 236.358 132.844 236.096C133 235.831 133.078 235.547 133.078 235.246V234.261C133.025 234.314 132.922 234.364 132.77 234.411C132.62 234.454 132.45 234.492 132.257 234.525C132.065 234.555 131.878 234.583 131.696 234.609C131.513 234.633 131.361 234.652 131.238 234.669C130.95 234.705 130.686 234.767 130.448 234.853C130.212 234.939 130.024 235.063 129.881 235.226C129.742 235.385 129.672 235.597 129.672 235.862C129.672 236.23 129.808 236.509 130.08 236.697C130.352 236.883 130.698 236.976 131.119 236.976ZM138.031 227.818V238H136.544V227.818H138.031ZM143.322 238.154C142.569 238.154 141.921 237.993 141.378 237.672C140.838 237.347 140.42 236.891 140.125 236.305C139.833 235.715 139.688 235.024 139.688 234.232C139.688 233.449 139.833 232.76 140.125 232.163C140.42 231.567 140.831 231.101 141.358 230.766C141.888 230.432 142.508 230.264 143.217 230.264C143.648 230.264 144.066 230.335 144.47 230.478C144.875 230.621 145.237 230.844 145.559 231.149C145.88 231.454 146.134 231.85 146.32 232.337C146.505 232.821 146.598 233.41 146.598 234.102V234.629H140.528V233.516H145.141C145.141 233.125 145.062 232.778 144.903 232.477C144.744 232.172 144.52 231.931 144.232 231.756C143.946 231.58 143.612 231.492 143.227 231.492C142.81 231.492 142.445 231.595 142.134 231.8C141.825 232.003 141.587 232.268 141.418 232.596C141.252 232.921 141.169 233.274 141.169 233.655V234.525C141.169 235.035 141.259 235.469 141.438 235.827C141.62 236.185 141.873 236.459 142.198 236.648C142.523 236.833 142.902 236.926 143.337 236.926C143.618 236.926 143.875 236.886 144.107 236.807C144.339 236.724 144.54 236.601 144.709 236.439C144.878 236.277 145.007 236.076 145.097 235.837L146.504 236.091C146.391 236.505 146.189 236.868 145.897 237.18C145.609 237.488 145.246 237.728 144.808 237.901C144.374 238.07 143.879 238.154 143.322 238.154ZM153.97 232.228L152.622 232.467C152.566 232.294 152.477 232.13 152.354 231.974C152.235 231.819 152.072 231.691 151.867 231.592C151.661 231.492 151.404 231.442 151.096 231.442C150.675 231.442 150.324 231.537 150.042 231.726C149.76 231.911 149.619 232.152 149.619 232.447C149.619 232.702 149.714 232.907 149.903 233.063C150.092 233.219 150.397 233.347 150.818 233.446L152.031 233.724C152.733 233.887 153.257 234.137 153.602 234.475C153.946 234.813 154.119 235.252 154.119 235.793C154.119 236.25 153.986 236.658 153.721 237.016C153.459 237.37 153.093 237.649 152.622 237.851C152.155 238.053 151.613 238.154 150.997 238.154C150.142 238.154 149.444 237.972 148.904 237.607C148.363 237.239 148.032 236.717 147.909 236.041L149.346 235.822C149.436 236.197 149.619 236.48 149.898 236.673C150.176 236.862 150.539 236.956 150.987 236.956C151.474 236.956 151.863 236.855 152.155 236.653C152.447 236.447 152.593 236.197 152.593 235.902C152.593 235.663 152.503 235.463 152.324 235.3C152.148 235.138 151.878 235.015 151.514 234.933L150.221 234.649C149.508 234.487 148.981 234.228 148.64 233.874C148.302 233.519 148.133 233.07 148.133 232.526C148.133 232.076 148.259 231.681 148.511 231.343C148.763 231.005 149.111 230.741 149.555 230.553C149.999 230.36 150.508 230.264 151.081 230.264C151.906 230.264 152.556 230.443 153.03 230.801C153.504 231.156 153.817 231.631 153.97 232.228Z" fill="black"/>
<path d="M123.703 212.377C170.814 212.377 209.005 174.186 209.005 127.074C209.005 79.9633 170.814 41.7722 123.703 41.7722C76.5915 41.7722 38.4004 79.9633 38.4004 127.074C38.4004 174.186 76.5915 212.377 123.703 212.377Z" stroke="#2B2B2B" stroke-width="1.62689"/>
<path d="M123.703 192.691C159.942 192.691 189.32 163.314 189.32 127.074C189.32 90.8349 159.942 61.4572 123.703 61.4572C87.4637 61.4572 58.0859 90.8349 58.0859 127.074C58.0859 163.314 87.4637 192.691 123.703 192.691Z" stroke="#2B2B2B" stroke-width="1.4642"/>
<path d="M123.703 173.603C149.4 173.603 170.231 152.771 170.231 127.074C170.231 101.377 149.4 80.5458 123.703 80.5458C98.0058 80.5458 77.1743 101.377 77.1743 127.074C77.1743 152.771 98.0058 173.603 123.703 173.603Z" stroke="#2B2B2B" stroke-width="1.30151"/>
<path d="M123.703 37V63.2468" stroke="#2B2B2B" stroke-width="1.62689" stroke-linecap="round"/>
<path d="M123.703 190.902V174.199" stroke="#2B2B2B" stroke-width="1.62689" stroke-linecap="round"/>
<path d="M184.548 65.6329L163.67 86.5111" stroke="#2B2B2B" stroke-width="1.62689" stroke-linecap="round"/>
<g filter="url(#filter0_f_240_452)">
<path opacity="0.9" d="M123.703 162.269C143.14 162.269 158.898 146.512 158.898 127.074C158.898 107.637 143.14 91.8796 123.703 91.8796C104.265 91.8796 88.5083 107.637 88.5083 127.074C88.5083 146.512 104.265 162.269 123.703 162.269Z" fill="#FF6A00"/>
</g>
<path d="M123.703 159.286C141.493 159.286 155.915 144.865 155.915 127.074C155.915 109.284 141.493 94.8623 123.703 94.8623C105.913 94.8623 91.4912 109.284 91.4912 127.074C91.4912 144.865 105.913 159.286 123.703 159.286Z" fill="#222221"/>
<path d="M123.703 60.2643C128.974 60.2643 133.247 55.9911 133.247 50.72C133.247 45.4488 128.974 41.1757 123.703 41.1757C118.432 41.1757 114.159 45.4488 114.159 50.72C114.159 55.9911 118.432 60.2643 123.703 60.2643Z" fill="white" stroke="#6E6E6E" stroke-width="1.62689"/>
<path d="M123.703 56.6851C126.997 56.6851 129.668 54.0144 129.668 50.7199C129.668 47.4255 126.997 44.7548 123.703 44.7548C120.408 44.7548 117.738 47.4255 117.738 50.7199C117.738 54.0144 120.408 56.6851 123.703 56.6851Z" stroke="#6E6E6E" stroke-width="1.13882"/>
<path d="M123.703 212.973C128.974 212.973 133.247 208.7 133.247 203.429C133.247 198.158 128.974 193.885 123.703 193.885C118.432 193.885 114.159 198.158 114.159 203.429C114.159 208.7 118.432 212.973 123.703 212.973Z" fill="white" stroke="#6E6E6E" stroke-width="1.62689"/>
<path d="M123.703 209.394C126.997 209.394 129.668 206.723 129.668 203.429C129.668 200.134 126.997 197.464 123.703 197.464C120.408 197.464 117.738 200.134 117.738 203.429C117.738 206.723 120.408 209.394 123.703 209.394Z" stroke="#6E6E6E" stroke-width="1.13882"/>
<path d="M192.303 68.019C197.574 68.019 201.847 63.7459 201.847 58.4747C201.847 53.2035 197.574 48.9304 192.303 48.9304C187.031 48.9304 182.758 53.2035 182.758 58.4747C182.758 63.7459 187.031 68.019 192.303 68.019Z" fill="white" stroke="#6E6E6E" stroke-width="1.62689"/>
<path d="M192.303 64.4398C195.598 64.4398 198.268 61.7691 198.268 58.4746C198.268 55.1801 195.598 52.5094 192.303 52.5094C189.009 52.5094 186.338 55.1801 186.338 58.4746C186.338 61.7691 189.009 64.4398 192.303 64.4398Z" stroke="#6E6E6E" stroke-width="1.13882"/>
<g clip-path="url(#clip0_240_452)">
<path d="M131.55 112.728C131.268 112.441 130.927 112.294 130.516 112.294C130.105 112.294 129.765 112.441 129.483 112.728C129.201 113.016 129.066 113.368 129.066 113.773V114.384C128.291 113.697 127.429 113.175 126.472 112.822C125.515 112.47 124.523 112.288 123.49 112.288C122.327 112.288 121.235 112.511 120.202 112.963C119.169 113.415 118.271 114.02 117.496 114.783C116.721 115.546 116.116 116.444 115.676 117.472C115.236 118.505 115.013 119.609 115.013 120.789C115.013 121.968 115.23 123.043 115.676 124.076C116.116 125.109 116.721 126.007 117.496 126.782C118.271 127.557 119.169 128.162 120.202 128.602C121.235 129.042 122.327 129.259 123.49 129.259C124.652 129.259 125.779 129.042 126.806 128.602C127.839 128.162 128.732 127.557 129.495 126.782C130.258 126.007 130.857 125.109 131.297 124.076C131.737 123.043 131.955 121.951 131.955 120.789V113.773C131.955 113.368 131.814 113.016 131.538 112.728H131.55ZM128.638 122.972C128.35 123.647 127.951 124.24 127.446 124.745C126.941 125.25 126.348 125.649 125.673 125.937C124.998 126.224 124.27 126.371 123.501 126.371C122.732 126.371 122.004 126.224 121.329 125.937C120.654 125.649 120.061 125.25 119.556 124.745C119.052 124.24 118.652 123.647 118.365 122.972C118.077 122.297 117.93 121.569 117.93 120.8C117.93 120.031 118.077 119.303 118.365 118.628C118.652 117.953 119.052 117.36 119.556 116.855C120.061 116.351 120.654 115.951 121.329 115.664C122.004 115.376 122.732 115.229 123.501 115.229C124.27 115.229 124.998 115.376 125.673 115.664C126.348 115.951 126.941 116.351 127.446 116.855C127.951 117.36 128.35 117.953 128.638 118.628C128.925 119.303 129.072 120.031 129.072 120.8C129.072 121.569 128.925 122.297 128.638 122.972Z" fill="white"/>
<path d="M115.928 132.359C115.758 131.995 115.729 131.619 115.846 131.232C115.964 130.844 116.204 130.568 116.568 130.392C116.785 130.287 116.997 130.234 117.214 130.234C117.472 130.234 117.719 130.304 117.954 130.445C118.188 130.586 118.382 130.786 118.535 131.044C119.004 131.989 119.691 132.735 120.578 133.281C121.47 133.827 122.439 134.102 123.495 134.102C124.552 134.102 125.55 133.827 126.442 133.281C127.335 132.735 128.015 131.989 128.485 131.044C128.614 130.786 128.796 130.586 129.031 130.445C129.266 130.304 129.512 130.234 129.771 130.234C130.458 130.234 130.921 130.568 131.156 131.232C131.285 131.596 131.262 131.972 131.092 132.359C130.728 133.069 130.276 133.709 129.741 134.29C129.207 134.871 128.608 135.365 127.951 135.77C127.293 136.175 126.595 136.492 125.843 136.703C125.092 136.92 124.305 137.026 123.489 137.026C121.881 137.026 120.396 136.609 119.046 135.77C117.695 134.93 116.65 133.791 115.923 132.353L115.928 132.359Z" fill="white"/>
<path d="M115.928 140.032C115.758 139.668 115.729 139.292 115.846 138.904C115.964 138.517 116.204 138.241 116.568 138.065C116.785 137.959 116.997 137.906 117.214 137.906C117.472 137.906 117.719 137.977 117.954 138.118C118.188 138.259 118.382 138.458 118.535 138.717C119.004 139.662 119.691 140.407 120.578 140.953C121.47 141.499 122.439 141.775 123.495 141.775C124.552 141.775 125.55 141.499 126.442 140.953C127.335 140.407 128.015 139.662 128.485 138.717C128.614 138.458 128.796 138.259 129.031 138.118C129.266 137.977 129.512 137.906 129.771 137.906C130.458 137.906 130.921 138.241 131.156 138.904C131.285 139.268 131.262 139.644 131.092 140.032C130.728 140.742 130.276 141.382 129.741 141.963C129.207 142.544 128.608 143.037 127.951 143.442C127.293 143.847 126.595 144.164 125.843 144.376C125.092 144.593 124.305 144.699 123.489 144.699C121.881 144.699 120.396 144.282 119.046 143.442C117.695 142.603 116.65 141.464 115.923 140.026L115.928 140.032Z" fill="#D54D2F"/>
</g>
<defs>
<filter id="filter0_f_240_452" x="74.1917" y="77.563" width="99.0224" height="99.0224" filterUnits="userSpaceOnUse" color-interpolation-filters="sRGB">
<feFlood flood-opacity="0" result="BackgroundImageFix"/>
<feBlend mode="normal" in="SourceGraphic" in2="BackgroundImageFix" result="shape"/>
<feGaussianBlur stdDeviation="7.15832" result="effect1_foregroundBlur_240_452"/>
</filter>
<clipPath id="clip0_240_452">
<rect x="102" y="107" width="43" height="43" rx="8" fill="white"/>
</clipPath>
</defs>
</svg>
