<svg width="183" height="134" viewBox="0 0 183 134" fill="none" xmlns="http://www.w3.org/2000/svg">
<rect x="8.01172" y="86.3411" width="6.8662" height="46.6945" rx="3.3197" fill="#FF5100"/>
<rect y="99.5557" width="6.8662" height="33.4791" rx="3.3197" fill="#D54D2F"/>
<rect x="91.6426" y="26.4312" width="6.8662" height="106.604" rx="3.3197" fill="#FF5100"/>
<rect x="83.6328" y="56.3865" width="6.8662" height="76.6495" rx="3.3197" fill="#D54D2F"/>
<rect x="35.8887" y="45.814" width="6.8662" height="87.2218" rx="3.3197" fill="#FF5100"/>
<rect x="27.877" y="70.4829" width="6.8662" height="62.553" rx="3.3197" fill="#D54D2F"/>
<rect x="119.52" y="99.5559" width="6.8662" height="33.4791" rx="3.3197" fill="#FF5100"/>
<rect x="111.508" y="108.807" width="6.8662" height="24.2283" rx="3.3197" fill="#D54D2F"/>
<rect x="63.7656" width="6.8662" height="133.035" rx="3.3197" fill="#FF5100"/>
<rect x="55.7539" y="37.4438" width="6.8662" height="95.5916" rx="3.3197" fill="#D54D2F"/>
<rect x="147.396" y="3.52417" width="6.8662" height="129.511" rx="3.3197" fill="#FF5100"/>
<rect x="139.385" y="40.0867" width="6.8662" height="92.9485" rx="3.3197" fill="#D54D2F"/>
<rect x="175.275" y="41.8494" width="6.8662" height="91.1864" rx="3.3197" fill="#FF5100"/>
<rect x="167.264" y="67.3989" width="6.8662" height="65.6366" rx="3.3197" fill="#D54D2F"/>
</svg>
