<svg width="51" height="50" viewBox="0 0 51 50" fill="none" xmlns="http://www.w3.org/2000/svg">
<path d="M46.0196 40.0391H46.2188C46.936 40.0391 47.6134 40.3828 48.0198 40.9609C48.4262 41.5391 48.5218 42.2812 48.2748 42.9375L47.4699 45.0469C46.9121 46.4922 45.5016 47.4531 43.9238 47.4531H7.08429C5.50648 47.4531 4.09601 46.4922 3.5382 45.0469L2.73335 42.9375C2.47835 42.2812 2.57398 41.5391 2.98039 40.9609C3.38679 40.3828 4.06414 40.0391 4.78132 40.0391H4.98054V13.2812C4.98054 11.6641 6.31929 10.3516 7.96882 10.3516H15.3399V5.46875C15.3399 3.85156 16.6787 2.53906 18.3282 2.53906H32.672C34.3215 2.53906 35.6602 3.85156 35.6602 5.46875V10.3516H43.0313C44.6809 10.3516 46.0196 11.6641 46.0196 13.2812V40.0391ZM17.9138 41.2109H4.78132C4.4546 41.2109 4.15179 41.3672 3.96054 41.6328C3.77726 41.8984 3.72945 42.2344 3.84898 42.5312L4.65382 44.6406C5.03632 45.6328 6.00054 46.2891 7.07632 46.2891H43.9159C44.9996 46.2891 45.9638 45.6328 46.3384 44.6406L47.1432 42.5312C47.2548 42.2344 47.2149 41.8984 47.0316 41.6328C46.8484 41.3672 46.5376 41.2109 46.2109 41.2109H33.0784L32.8074 41.9297C32.2496 43.375 30.8391 44.3359 29.2613 44.3359H21.7229C20.1451 44.3359 18.7346 43.375 18.1768 41.9297L17.9059 41.2109H17.9138ZM15.3399 11.5234H7.96882C6.9807 11.5234 6.17585 12.3125 6.17585 13.2812V40.0391H8.16804V14.0625C8.16804 13.7422 8.43898 13.4766 8.7657 13.4766H15.3399V11.5234ZM34.4649 25.9766V5.46875C34.4649 4.5 33.6601 3.71094 32.672 3.71094H18.3282C17.3401 3.71094 16.5352 4.5 16.5352 5.46875V25.9766H34.4649ZM44.8243 40.0391V13.2812C44.8243 12.3125 44.0195 11.5234 43.0313 11.5234H35.6602V13.4766H42.2345C42.5691 13.4766 42.8321 13.7422 42.8321 14.0625V40.0391H44.8243ZM9.36335 40.0391H41.6368V14.6484H35.6602V28.9062C35.6602 30.5234 34.3215 31.8359 32.672 31.8359H18.3282C16.6787 31.8359 15.3399 30.5234 15.3399 28.9062V14.6484H9.36335V40.0391ZM19.1888 41.2109L19.3084 41.5156C19.6909 42.5078 20.6551 43.1641 21.7309 43.1641H29.2693C30.3451 43.1641 31.3173 42.5078 31.6918 41.5156L31.8113 41.2109H19.1888ZM34.4649 27.1484H16.5352V28.9062C16.5352 29.875 17.3401 30.6641 18.3282 30.6641H32.672C33.6601 30.6641 34.4649 29.875 34.4649 28.9062V27.1484ZM21.4918 15.2578C21.2607 15.0313 21.2607 14.6562 21.4918 14.4297C21.7229 14.2031 22.1054 14.2031 22.3365 14.4297L24.1613 16.2188C24.241 16.2969 24.3685 16.2969 24.4402 16.2188L28.6557 12.0859C28.8868 11.8594 29.2693 11.8594 29.5004 12.0859C29.7315 12.3125 29.7315 12.6875 29.5004 12.9141L25.2849 17.0469C24.743 17.5781 23.8585 17.5781 23.3087 17.0469L21.4838 15.2578H21.4918Z" fill="#222221" stroke="#222221"/>
</svg>
