<svg width="48" height="48" viewBox="0 0 48 48" fill="none" xmlns="http://www.w3.org/2000/svg">
<path d="M5 24C5 15.044 5 10.564 7.782 7.782C10.564 5 15.042 5 24 5C32.956 5 37.436 5 40.218 7.782C43 10.564 43 15.042 43 24C43 32.956 43 37.436 40.218 40.218C37.436 43 32.958 43 24 43C15.044 43 10.564 43 7.782 40.218C5 37.436 5 32.958 5 24Z" stroke="#222221" stroke-width="3"/>
<path d="M12 27L15 18L18.75 27M12 27L11 30M12 27H18.75M18.75 27L20 30M25 24V19.4C25 19.028 25 18.84 25.048 18.69C25.0972 18.5401 25.1813 18.4039 25.2932 18.2927C25.4051 18.1815 25.5418 18.0983 25.692 18.05C25.84 18 26.026 18 26.4 18H29C29.7956 18 30.5587 18.3161 31.1213 18.8787C31.6839 19.4413 32 20.2044 32 21C32 21.7956 31.6839 22.5587 31.1213 23.1213C30.5587 23.6839 29.7956 24 29 24H25ZM25 24V30M37 18V30" stroke="#222221" stroke-width="3" stroke-linecap="round" stroke-linejoin="round"/>
</svg>
