<svg width="58" height="58" viewBox="0 0 58 58" fill="none" xmlns="http://www.w3.org/2000/svg">
<path d="M50.1158 55.8251H7.88457C5.8002 55.8251 4.16895 54.1938 4.16895 52.1095V47.8501H53.8314V52.1095C53.8314 54.1938 52.2002 55.8251 50.1158 55.8251Z" stroke="#222221" stroke-width="2.26562" stroke-miterlimit="10" stroke-linejoin="round"/>
<path d="M15.5877 23.1094H12.0533C10.9658 23.1094 10.0596 24.0156 10.0596 25.1031V47.85H47.9408V38.0625V25.1031C47.9408 24.0156 47.0346 23.1094 45.9471 23.1094H37.5189" stroke="#222221" stroke-width="2.26562" stroke-miterlimit="10" stroke-linejoin="round"/>
<path d="M31.6283 21.0249H31.9908C32.8064 21.0249 33.5314 21.6593 33.5314 22.5655V23.653C33.5314 24.2874 33.0783 24.9218 32.4439 25.103L31.5377 25.3749C31.1752 27.8218 29.7252 30.2687 27.6408 31.7187C26.6439 32.353 25.5564 32.7155 24.4689 32.7155C23.3814 32.7155 22.2939 32.353 21.2971 31.7187C19.2127 30.2687 17.7627 27.8218 17.4002 25.3749L16.5846 25.103C15.9502 24.9218 15.4971 24.2874 15.4971 23.653V22.5655C15.4971 21.7499 16.1314 21.0249 17.0377 21.0249H17.4002" stroke="#222221" stroke-width="2.26562" stroke-miterlimit="10" stroke-linejoin="round"/>
<path d="M16.3129 21.2969V19.575C16.3129 17.4906 15.5879 15.4063 14.2285 13.775C14.2285 13.775 22.4754 5.61876 28.8191 11.6906C28.8191 11.6906 36.6129 12.5063 32.9879 21.2063" stroke="#222221" stroke-width="2.26562" stroke-miterlimit="10" stroke-linejoin="round"/>
<path d="M17.4907 21.0251L18.9407 21.3876C18.9407 21.3876 19.2126 17.2188 23.472 17.5813C26.372 17.8532 28.1845 15.9501 28.1845 15.9501C28.1845 15.9501 30.6313 18.0344 29.8157 21.4782L31.5376 21.0251" stroke="#222221" stroke-width="2.26562" stroke-miterlimit="10" stroke-linejoin="round"/>
<path d="M16.3125 42.3218V47.8499" stroke="#222221" stroke-width="2.26562" stroke-miterlimit="10" stroke-linejoin="round"/>
<path d="M28.0035 31.447L28.4566 31.6282L36.4316 34.4376C37.9723 34.9813 39.0598 36.4313 39.0598 38.1532V47.8501H10.1504V38.0626C10.1504 36.4313 11.2379 34.8907 12.7785 34.347L20.7535 31.5376L21.2066 31.3563" stroke="#222221" stroke-width="2.26562" stroke-miterlimit="10" stroke-linejoin="round"/>
<path d="M32.8066 42.3218V47.8499" stroke="#222221" stroke-width="2.26562" stroke-miterlimit="10" stroke-linejoin="round"/>
<path d="M17.7627 32.7157L19.6658 36.8845L24.5596 32.7157" stroke="#222221" stroke-width="2.26562" stroke-miterlimit="10" stroke-linejoin="round"/>
<path d="M30.9033 32.7157L29.0002 36.8845L24.1064 32.7157" stroke="#222221" stroke-width="2.26562" stroke-miterlimit="10" stroke-linejoin="round"/>
<path d="M21.6597 35.1626L23.1097 36.6126C23.8347 37.247 24.9222 37.247 25.5565 36.6126L27.0065 35.1626" stroke="#222221" stroke-width="2.26562" stroke-miterlimit="10" stroke-linejoin="round"/>
<path d="M25.3754 36.7938L27.1879 42.0501L24.3785 45.1313L21.4785 42.0501L23.291 36.7938" stroke="#222221" stroke-width="2.26562" stroke-miterlimit="10" stroke-linejoin="round"/>
<path d="M43.8628 14.772L39.3315 18.6688V14.772H37.9722C36.9753 14.772 36.1597 13.9563 36.1597 12.9595V3.89697C36.1597 2.9001 36.9753 2.08447 37.9722 2.08447H51.4753C52.4722 2.08447 53.2878 2.9001 53.2878 3.89697V12.9595C53.2878 13.9563 52.4722 14.772 51.4753 14.772H43.8628Z" stroke="#222221" stroke-width="2.26562" stroke-miterlimit="10" stroke-linejoin="round"/>
<path d="M38.9688 8.3374H40.6906" stroke="#222221" stroke-width="2.26562" stroke-miterlimit="10" stroke-linejoin="round"/>
<path d="M43.9531 8.3374H45.5844" stroke="#222221" stroke-width="2.26562" stroke-miterlimit="10" stroke-linejoin="round"/>
<path d="M48.7563 8.3374H50.3876" stroke="#222221" stroke-width="2.26562" stroke-miterlimit="10" stroke-linejoin="round"/>
</svg>
