<svg width="49" height="55" viewBox="0 0 49 55" fill="none" xmlns="http://www.w3.org/2000/svg">
<path d="M9.35437 48.8194V49.17C9.35437 49.8436 9.08408 50.4894 8.60874 50.96C8.12408 51.4305 7.47165 51.7073 6.79126 51.7073H3.06311C2.38272 51.7073 1.73029 51.4398 1.24563 50.96C0.770291 50.4802 0.5 49.8343 0.5 49.17V32.5622C0.5 31.8887 0.770291 31.2428 1.24563 30.7723C1.73029 30.2925 2.38272 30.0249 3.06311 30.0249H6.79126C7.47165 30.0249 8.12408 30.2925 8.60874 30.7723C9.08408 31.2521 9.35437 31.8979 9.35437 32.5622V33.2266H12.1691C12.253 33.2266 12.3462 33.2266 12.4301 33.1989L18.5256 31.8149C20.6414 31.3351 22.8503 31.9625 24.3882 33.4849L24.5 33.5956L24.6118 33.4849C26.1404 31.9625 28.3586 31.3351 30.4744 31.8149L36.5699 33.1989C36.6538 33.2173 36.747 33.2266 36.8309 33.2266H39.6456V32.5622C39.6456 31.8887 39.9159 31.2428 40.3913 30.7723C40.8759 30.2925 41.5283 30.0249 42.2087 30.0249H45.9369C46.6173 30.0249 47.2697 30.2925 47.7544 30.7723C48.2297 31.2521 48.5 31.8979 48.5 32.5622V49.17C48.5 49.8436 48.2297 50.4894 47.7544 50.96C47.2697 51.4305 46.6173 51.7073 45.9369 51.7073H42.2087C41.5283 51.7073 40.8759 51.4398 40.3913 50.96C39.9159 50.4802 39.6456 49.8343 39.6456 49.17V48.8194H36.2623C36.1971 48.8932 36.1318 48.967 36.0666 49.0316C35.526 49.5668 34.8083 49.862 34.0441 49.862C33.4569 49.862 32.8884 49.6867 32.4223 49.3546C32.3012 49.8528 32.0495 50.3233 31.6581 50.7109C31.1268 51.246 30.3998 51.5412 29.6355 51.5412C28.8713 51.5412 28.1536 51.246 27.613 50.7109L27.3148 50.4156C27.1936 50.9046 26.9326 51.3567 26.5691 51.7165C26.0379 52.2517 25.3109 52.5469 24.5466 52.5469C23.7823 52.5469 23.0647 52.2517 22.5241 51.7165L22.2258 51.4213C22.1047 51.9011 21.853 52.344 21.4802 52.7222C20.9489 53.2574 20.2219 53.5526 19.4577 53.5526C18.6934 53.5526 17.9757 53.2574 17.4351 52.7222L14.9186 50.2311C13.9959 49.3176 12.7563 48.8102 11.4608 48.8102H9.34505L9.35437 48.8194ZM41.0437 32.5622V49.17C41.0437 49.4745 41.1649 49.7697 41.3885 49.982C41.6122 50.1942 41.9012 50.3233 42.2087 50.3233H45.9369C46.2445 50.3233 46.5427 50.2034 46.7571 49.982C46.9715 49.7605 47.1019 49.4745 47.1019 49.17V32.5622C47.1019 32.2578 46.9808 31.9625 46.7571 31.7503C46.5334 31.5381 46.2445 31.4089 45.9369 31.4089H42.2087C41.9012 31.4089 41.6029 31.5289 41.3885 31.7503C41.1742 31.9717 41.0437 32.2578 41.0437 32.5622ZM39.6456 34.6105H36.8309C36.6351 34.6105 36.4487 34.5921 36.253 34.546L30.1575 33.1527C28.5171 32.7745 26.7928 33.2635 25.5998 34.4445L22.3097 37.7014C21.9555 38.052 21.7598 38.5134 21.7598 39.0024C21.7598 39.4914 21.9555 39.9619 22.3097 40.3033C22.6639 40.6539 23.1299 40.8477 23.6239 40.8477C24.1179 40.8477 24.5932 40.6539 24.9381 40.3125L27.6223 37.6461C27.8926 37.3785 28.34 37.3785 28.6103 37.6461L36.0573 45.0181C36.5885 45.544 36.8961 46.2637 36.8961 47.0202C36.8961 47.1586 36.8868 47.2878 36.8682 47.417H39.6456V34.6013V34.6105ZM26.0658 41.1706L33.0188 48.0536C33.2891 48.3212 33.6619 48.478 34.0534 48.478C34.4449 48.478 34.8083 48.3212 35.088 48.0536C35.3583 47.786 35.5167 47.417 35.5167 47.0295C35.5167 46.6419 35.3676 46.2821 35.088 46.0145L28.135 39.1315L26.0751 41.1706H26.0658ZM23.512 34.5644L23.4002 34.4537C22.2072 33.2727 20.4829 32.7837 18.8425 33.162L12.747 34.5552C12.5606 34.6013 12.3649 34.6198 12.1691 34.6198H9.35437V47.4354H11.4701C13.1384 47.4354 14.7416 48.0905 15.9159 49.2623L18.4324 51.7535C18.7027 52.021 19.0755 52.1779 19.467 52.1779C19.8584 52.1779 20.2219 52.021 20.5016 51.7535C21.0701 51.1906 21.0701 50.2772 20.5016 49.7144L18.4417 47.6753C18.1715 47.4078 18.1715 46.9649 18.4417 46.6973C18.712 46.4297 19.1594 46.4297 19.4297 46.6973L23.5214 50.7478C23.7917 51.0153 24.1645 51.1722 24.5559 51.1722C24.9474 51.1722 25.3109 51.0153 25.5905 50.7478C25.8608 50.4802 26.0192 50.1111 26.0192 49.7236C26.0192 49.3361 25.8701 48.9763 25.5905 48.6995L21.4988 44.649C21.2285 44.3814 21.2285 43.9386 21.4988 43.671C21.7691 43.4034 22.2165 43.4034 22.4868 43.671L28.6103 49.7328C28.8806 50.0004 29.2534 50.1573 29.6449 50.1573C30.0363 50.1573 30.3998 50.0004 30.6794 49.7328C31.248 49.17 31.248 48.2566 30.6794 47.6938L24.9194 41.9918C24.5186 42.1671 24.0806 42.2501 23.6332 42.2501C22.7664 42.2501 21.9369 41.9087 21.3311 41.2998C20.7159 40.6908 20.3804 39.8697 20.3804 39.0116C20.3804 38.1535 20.7252 37.3324 21.3311 36.7234L23.5214 34.5552L23.512 34.5644ZM7.95631 49.17V32.5622C7.95631 32.2578 7.83515 31.9625 7.61146 31.7503C7.38777 31.5381 7.09883 31.4089 6.79126 31.4089H3.06311C2.75553 31.4089 2.45728 31.5289 2.24291 31.7503C2.02854 31.9717 1.89806 32.2578 1.89806 32.5622V49.17C1.89806 49.4745 2.01922 49.7697 2.24291 49.982C2.4666 50.1942 2.75553 50.3233 3.06311 50.3233H6.79126C7.09883 50.3233 7.39709 50.2034 7.61146 49.982C7.82583 49.7605 7.95631 49.4745 7.95631 49.17ZM24.5 0.5C32.0868 0.5 38.2476 6.59875 38.2476 14.1092C38.2476 21.6196 32.0868 27.7183 24.5 27.7183C16.9132 27.7183 10.7524 21.6196 10.7524 14.1092C10.7524 6.59875 16.9132 0.5 24.5 0.5ZM24.5 1.88398C17.6868 1.88398 12.1505 7.36455 12.1505 14.1092C12.1505 20.8538 17.6868 26.3343 24.5 26.3343C31.3132 26.3343 36.8495 20.8538 36.8495 14.1092C36.8495 7.36455 31.3132 1.88398 24.5 1.88398ZM24.5 4.19062C30.027 4.19062 34.5194 8.63781 34.5194 14.1092C34.5194 19.5805 30.027 24.0277 24.5 24.0277C18.973 24.0277 14.4806 19.5805 14.4806 14.1092C14.4806 8.63781 18.973 4.19062 24.5 4.19062ZM24.5 5.5746C19.7466 5.5746 15.8786 9.39439 15.8786 14.1092C15.8786 18.8239 19.7466 22.6437 24.5 22.6437C29.2534 22.6437 33.1214 18.8239 33.1214 14.1092C33.1214 9.39439 29.2534 5.5746 24.5 5.5746ZM19.8118 15.5208C19.5416 15.2532 19.5416 14.8104 19.8118 14.5428C20.0821 14.2752 20.5295 14.2752 20.7998 14.5428L22.9342 16.6557C23.0274 16.7479 23.1765 16.7479 23.2604 16.6557L28.1909 11.7748C28.4612 11.5073 28.9085 11.5073 29.1788 11.7748C29.4491 12.0424 29.4491 12.4853 29.1788 12.7529L24.2484 17.6337C23.6146 18.2611 22.58 18.2611 21.9462 17.6337L19.8118 15.5208Z" fill="#222221" stroke="#222221"/>
</svg>
