<svg width="48" height="48" viewBox="0 0 48 48" fill="none" xmlns="http://www.w3.org/2000/svg">
<path d="M36 31.5H39V39H36V31.5ZM30 24H33V39H30V24ZM16.5 39C14.5116 38.9976 12.6053 38.2067 11.1993 36.8007C9.79332 35.3947 9.00238 33.4884 9 31.5H12C12 32.39 12.2639 33.26 12.7584 34.0001C13.2529 34.7401 13.9557 35.3169 14.7779 35.6575C15.6002 35.9981 16.505 36.0872 17.3779 35.9135C18.2508 35.7399 19.0526 35.3113 19.682 34.682C20.3113 34.0526 20.7399 33.2508 20.9135 32.3779C21.0872 31.505 20.9981 30.6002 20.6575 29.7779C20.3169 28.9557 19.7401 28.2529 19.0001 27.7584C18.26 27.2639 17.39 27 16.5 27V24C18.4891 24 20.3968 24.7902 21.8033 26.1967C23.2098 27.6032 24 29.5109 24 31.5C24 33.4891 23.2098 35.3968 21.8033 36.8033C20.3968 38.2098 18.4891 39 16.5 39Z" fill="#222221"/>
<path d="M42 3H6C5.20435 3 4.44129 3.31607 3.87868 3.87868C3.31607 4.44129 3 5.20435 3 6V42C3 42.7957 3.31607 43.5587 3.87868 44.1213C4.44129 44.6839 5.20435 45 6 45H42C42.7953 44.9988 43.5577 44.6824 44.12 44.12C44.6824 43.5577 44.9988 42.7953 45 42V6C45 5.20435 44.6839 4.44129 44.1213 3.87868C43.5587 3.31607 42.7957 3 42 3ZM42 16.5H21V6H42V16.5ZM18 6V16.5H6V6H18ZM6 42V19.5H42L42.003 42H6Z" fill="#222221"/>
</svg>
