<svg width="254" height="253" viewBox="0 0 254 253" fill="none" xmlns="http://www.w3.org/2000/svg">
<g opacity="0.9" filter="url(#filter0_f_240_451)">
<path d="M120.661 222.925C173.493 222.925 216.322 180.096 216.322 127.264C216.322 74.4319 173.493 31.6029 120.661 31.6029C67.8289 31.6029 25 74.4319 25 127.264C25 180.096 67.8289 222.925 120.661 222.925Z" stroke="#FF6A00" stroke-width="2.60302"/>
</g>
<path opacity="0.9" d="M34.7617 127.264H53.6336" stroke="#E5A15D" stroke-width="1.95227" stroke-linecap="round"/>
<path d="M187.689 127.264H204.609" stroke="#2A2A2A" stroke-width="2.60302" stroke-linecap="round"/>
<path d="M120.661 191.689C156.242 191.689 185.086 162.845 185.086 127.264C185.086 91.6833 156.242 62.8394 120.661 62.8394C85.0803 62.8394 56.2363 91.6833 56.2363 127.264C56.2363 162.845 85.0803 191.689 120.661 191.689Z" fill="#E0DDD7"/>
<path d="M120.661 204.053C163.071 204.053 197.451 169.674 197.451 127.264C197.451 84.8547 163.071 50.475 120.661 50.475C78.2518 50.475 43.8721 84.8547 43.8721 127.264C43.8721 169.674 78.2518 204.053 120.661 204.053Z" stroke="#1F1F1F" stroke-width="1.62689"/>
<path opacity="0.95" d="M120.661 217.068C170.258 217.068 210.465 176.862 210.465 127.264C210.465 77.6666 170.258 37.4598 120.661 37.4598C71.0632 37.4598 30.8564 77.6666 30.8564 127.264C30.8564 176.862 71.0632 217.068 120.661 217.068Z" stroke="#1F1F1F" stroke-width="1.30151"/>
<g filter="url(#filter1_f_240_451)">
<path opacity="0.95" d="M223.696 151.064C235.675 151.064 245.386 141.354 245.386 129.375C245.386 117.395 235.675 107.685 223.696 107.685C211.717 107.685 202.006 117.395 202.006 129.375C202.006 141.354 211.717 151.064 223.696 151.064Z" fill="#FF6A00"/>
</g>
<path d="M224 149C234.493 149 243 140.493 243 130C243 119.507 234.493 111 224 111C213.507 111 205 119.507 205 130C205 140.493 213.507 149 224 149Z" fill="#222221"/>
<path d="M224 153C236.703 153 247 142.703 247 130C247 117.297 236.703 107 224 107C211.297 107 201 117.297 201 130C201 142.703 211.297 153 224 153Z" stroke="#E68A41" stroke-width="1.30151"/>
<path d="M95.7835 103.141V101.818H103.663V103.141H100.487V112H98.9553V103.141H95.7835ZM109.084 108.833V104.364H110.575V112H109.114V110.678H109.034C108.858 111.085 108.577 111.425 108.189 111.697C107.804 111.965 107.325 112.099 106.752 112.099C106.262 112.099 105.827 111.992 105.449 111.776C105.075 111.558 104.78 111.234 104.565 110.807C104.352 110.379 104.246 109.851 104.246 109.221V104.364H105.733V109.042C105.733 109.562 105.877 109.977 106.165 110.285C106.454 110.593 106.828 110.747 107.289 110.747C107.567 110.747 107.844 110.678 108.119 110.538C108.398 110.399 108.628 110.189 108.81 109.907C108.996 109.625 109.087 109.267 109.084 108.833ZM116.397 112V101.818H122.78V103.141H117.933V106.243H122.447V107.56H117.933V110.678H122.84V112H116.397ZM124.832 112V101.818H128.462C129.251 101.818 129.905 101.954 130.426 102.226C130.949 102.498 131.34 102.874 131.599 103.354C131.857 103.832 131.987 104.384 131.987 105.01C131.987 105.633 131.856 106.182 131.594 106.656C131.335 107.126 130.944 107.492 130.421 107.754C129.9 108.016 129.246 108.147 128.457 108.147H125.707V106.825H128.318C128.815 106.825 129.219 106.753 129.531 106.611C129.845 106.468 130.076 106.261 130.222 105.989C130.368 105.718 130.44 105.391 130.44 105.01C130.44 104.625 130.366 104.292 130.217 104.011C130.071 103.729 129.841 103.513 129.526 103.364C129.214 103.212 128.805 103.136 128.298 103.136H126.369V112H124.832ZM129.859 107.406L132.374 112H130.624L128.158 107.406H129.859ZM133.856 112V101.818H137.485C138.277 101.818 138.934 101.962 139.454 102.251C139.974 102.539 140.364 102.933 140.622 103.434C140.881 103.931 141.01 104.491 141.01 105.114C141.01 105.741 140.879 106.304 140.617 106.805C140.359 107.302 139.968 107.696 139.444 107.988C138.924 108.276 138.269 108.42 137.48 108.42H134.984V107.118H137.341C137.841 107.118 138.247 107.032 138.559 106.859C138.871 106.684 139.099 106.445 139.245 106.143C139.391 105.842 139.464 105.499 139.464 105.114C139.464 104.73 139.391 104.388 139.245 104.09C139.099 103.792 138.869 103.558 138.554 103.389C138.243 103.22 137.832 103.136 137.321 103.136H135.392V112H133.856ZM146.57 101.341L143.288 113.531H141.961L145.242 101.341H146.57ZM97.0742 124.493C97.0212 124.022 96.8024 123.658 96.418 123.399C96.0335 123.137 95.5496 123.006 94.9663 123.006C94.5487 123.006 94.1874 123.073 93.8825 123.205C93.5775 123.335 93.3406 123.513 93.1715 123.742C93.0058 123.968 92.9229 124.224 92.9229 124.513C92.9229 124.755 92.9793 124.964 93.092 125.139C93.208 125.315 93.3588 125.462 93.5444 125.582C93.7333 125.698 93.9355 125.795 94.1509 125.875C94.3664 125.951 94.5735 126.014 94.7724 126.064L95.7667 126.322C96.0915 126.402 96.4246 126.51 96.766 126.646C97.1074 126.781 97.4239 126.96 97.7156 127.183C98.0072 127.405 98.2425 127.68 98.4215 128.008C98.6038 128.336 98.695 128.729 98.695 129.186C98.695 129.763 98.5458 130.275 98.2475 130.722C97.9525 131.17 97.5233 131.523 96.9599 131.781C96.3997 132.04 95.7219 132.169 94.9265 132.169C94.1642 132.169 93.5046 132.048 92.9478 131.806C92.391 131.564 91.9551 131.221 91.6403 130.777C91.3254 130.33 91.1514 129.799 91.1183 129.186H92.6594C92.6893 129.554 92.8086 129.861 93.0174 130.106C93.2295 130.348 93.4996 130.528 93.8278 130.648C94.1592 130.764 94.5221 130.822 94.9165 130.822C95.3507 130.822 95.7369 130.754 96.0749 130.618C96.4163 130.479 96.6848 130.286 96.8803 130.041C97.0759 129.793 97.1737 129.503 97.1737 129.171C97.1737 128.87 97.0875 128.623 96.9151 128.43C96.7461 128.238 96.5157 128.079 96.2241 127.953C95.9357 127.827 95.6093 127.716 95.2447 127.62L94.0415 127.292C93.2262 127.07 92.5799 126.743 92.1026 126.312C91.6287 125.882 91.3917 125.312 91.3917 124.602C91.3917 124.016 91.5508 123.504 91.869 123.066C92.1871 122.629 92.618 122.289 93.1616 122.047C93.7051 121.802 94.3183 121.679 95.0011 121.679C95.6905 121.679 96.2987 121.8 96.8256 122.042C97.3559 122.284 97.7736 122.617 98.0785 123.041C98.3834 123.462 98.5425 123.946 98.5558 124.493H97.0742ZM100.411 132V124.364H101.898V132H100.411ZM101.162 123.185C100.904 123.185 100.682 123.099 100.496 122.927C100.314 122.751 100.222 122.542 100.222 122.3C100.222 122.055 100.314 121.846 100.496 121.674C100.682 121.498 100.904 121.411 101.162 121.411C101.421 121.411 101.641 121.498 101.823 121.674C102.009 121.846 102.102 122.055 102.102 122.3C102.102 122.542 102.009 122.751 101.823 122.927C101.641 123.099 101.421 123.185 101.162 123.185ZM109.62 126.228L108.273 126.467C108.216 126.294 108.127 126.13 108.004 125.974C107.885 125.819 107.723 125.691 107.517 125.592C107.312 125.492 107.055 125.442 106.746 125.442C106.326 125.442 105.974 125.537 105.692 125.726C105.411 125.911 105.27 126.152 105.27 126.447C105.27 126.702 105.364 126.907 105.553 127.063C105.742 127.219 106.047 127.347 106.468 127.446L107.681 127.724C108.384 127.887 108.907 128.137 109.252 128.475C109.597 128.813 109.769 129.252 109.769 129.793C109.769 130.25 109.637 130.658 109.371 131.016C109.11 131.37 108.743 131.649 108.273 131.851C107.805 132.053 107.263 132.154 106.647 132.154C105.792 132.154 105.094 131.972 104.554 131.607C104.014 131.239 103.682 130.717 103.56 130.041L104.996 129.822C105.086 130.197 105.27 130.48 105.548 130.673C105.827 130.862 106.19 130.956 106.637 130.956C107.124 130.956 107.514 130.855 107.805 130.653C108.097 130.447 108.243 130.197 108.243 129.902C108.243 129.663 108.153 129.463 107.974 129.3C107.799 129.138 107.529 129.015 107.164 128.933L105.871 128.649C105.159 128.487 104.632 128.228 104.29 127.874C103.952 127.519 103.783 127.07 103.783 126.526C103.783 126.076 103.909 125.681 104.161 125.343C104.413 125.005 104.761 124.741 105.205 124.553C105.649 124.36 106.158 124.264 106.732 124.264C107.557 124.264 108.206 124.443 108.68 124.801C109.154 125.156 109.468 125.631 109.62 126.228ZM114.968 124.364V125.557H110.797V124.364H114.968ZM111.916 122.534H113.402V129.758C113.402 130.046 113.445 130.263 113.531 130.409C113.618 130.552 113.729 130.649 113.865 130.702C114.004 130.752 114.155 130.777 114.317 130.777C114.436 130.777 114.541 130.769 114.63 130.752C114.72 130.736 114.789 130.722 114.839 130.712L115.107 131.94C115.021 131.973 114.899 132.007 114.74 132.04C114.58 132.076 114.382 132.096 114.143 132.099C113.752 132.106 113.387 132.036 113.049 131.891C112.711 131.745 112.438 131.519 112.229 131.214C112.02 130.91 111.916 130.527 111.916 130.066V122.534ZM119.822 132.154C119.069 132.154 118.421 131.993 117.878 131.672C117.338 131.347 116.92 130.891 116.625 130.305C116.333 129.715 116.188 129.024 116.188 128.232C116.188 127.449 116.333 126.76 116.625 126.163C116.92 125.567 117.331 125.101 117.858 124.766C118.388 124.432 119.008 124.264 119.717 124.264C120.148 124.264 120.566 124.335 120.97 124.478C121.375 124.621 121.737 124.844 122.059 125.149C122.38 125.454 122.634 125.85 122.82 126.337C123.005 126.821 123.098 127.41 123.098 128.102V128.629H117.028V127.516H121.641C121.641 127.125 121.562 126.778 121.403 126.477C121.244 126.172 121.02 125.931 120.732 125.756C120.446 125.58 120.112 125.492 119.727 125.492C119.31 125.492 118.945 125.595 118.634 125.8C118.325 126.003 118.087 126.268 117.918 126.596C117.752 126.921 117.669 127.274 117.669 127.655V128.525C117.669 129.035 117.759 129.469 117.938 129.827C118.12 130.185 118.373 130.459 118.698 130.648C119.023 130.833 119.402 130.926 119.837 130.926C120.118 130.926 120.375 130.886 120.607 130.807C120.839 130.724 121.04 130.601 121.209 130.439C121.378 130.277 121.507 130.076 121.597 129.837L123.004 130.091C122.891 130.505 122.689 130.868 122.397 131.18C122.109 131.488 121.746 131.728 121.308 131.901C120.874 132.07 120.379 132.154 119.822 132.154ZM124.747 132V124.364H126.174V125.607H126.269C126.428 125.186 126.688 124.857 127.049 124.622C127.41 124.384 127.843 124.264 128.347 124.264C128.857 124.264 129.285 124.384 129.629 124.622C129.977 124.861 130.234 125.189 130.4 125.607H130.48C130.662 125.199 130.952 124.874 131.35 124.632C131.747 124.387 132.221 124.264 132.771 124.264C133.464 124.264 134.029 124.481 134.467 124.915C134.908 125.35 135.128 126.004 135.128 126.879V132H133.642V127.018C133.642 126.501 133.501 126.127 133.219 125.895C132.937 125.663 132.601 125.547 132.21 125.547C131.726 125.547 131.35 125.696 131.081 125.994C130.813 126.289 130.678 126.669 130.678 127.133V132H129.197V126.924C129.197 126.51 129.068 126.177 128.809 125.925C128.551 125.673 128.214 125.547 127.8 125.547C127.518 125.547 127.258 125.621 127.019 125.771C126.784 125.916 126.593 126.12 126.448 126.382C126.305 126.644 126.234 126.947 126.234 127.292V132H124.747ZM139.343 132.169C138.859 132.169 138.421 132.08 138.03 131.901C137.639 131.718 137.329 131.455 137.1 131.11C136.875 130.765 136.762 130.343 136.762 129.842C136.762 129.411 136.845 129.057 137.011 128.778C137.177 128.5 137.4 128.28 137.682 128.117C137.964 127.955 138.279 127.832 138.627 127.749C138.975 127.666 139.329 127.603 139.691 127.56C140.148 127.507 140.519 127.464 140.804 127.431C141.089 127.395 141.297 127.337 141.426 127.257C141.555 127.178 141.62 127.048 141.62 126.869V126.835C141.62 126.4 141.497 126.064 141.252 125.825C141.01 125.587 140.649 125.467 140.168 125.467C139.667 125.467 139.273 125.578 138.985 125.8C138.7 126.019 138.502 126.263 138.393 126.531L136.996 126.213C137.162 125.749 137.404 125.375 137.722 125.089C138.043 124.801 138.413 124.592 138.831 124.463C139.248 124.33 139.687 124.264 140.148 124.264C140.453 124.264 140.776 124.301 141.118 124.374C141.462 124.443 141.784 124.572 142.082 124.761C142.384 124.95 142.631 125.22 142.823 125.572C143.015 125.92 143.111 126.372 143.111 126.929V132H141.659V130.956H141.6C141.504 131.148 141.359 131.337 141.167 131.523C140.975 131.708 140.728 131.862 140.426 131.985C140.125 132.108 139.764 132.169 139.343 132.169ZM139.666 130.976C140.077 130.976 140.428 130.895 140.72 130.732C141.015 130.57 141.239 130.358 141.391 130.096C141.547 129.831 141.625 129.547 141.625 129.246V128.261C141.572 128.314 141.469 128.364 141.316 128.411C141.167 128.454 140.997 128.492 140.804 128.525C140.612 128.555 140.425 128.583 140.243 128.609C140.06 128.633 139.908 128.652 139.785 128.669C139.497 128.705 139.233 128.767 138.995 128.853C138.759 128.939 138.57 129.063 138.428 129.226C138.289 129.385 138.219 129.597 138.219 129.862C138.219 130.23 138.355 130.509 138.627 130.697C138.899 130.883 139.245 130.976 139.666 130.976ZM150.813 126.228L149.466 126.467C149.41 126.294 149.32 126.13 149.198 125.974C149.078 125.819 148.916 125.691 148.71 125.592C148.505 125.492 148.248 125.442 147.94 125.442C147.519 125.442 147.168 125.537 146.886 125.726C146.604 125.911 146.463 126.152 146.463 126.447C146.463 126.702 146.558 126.907 146.747 127.063C146.936 127.219 147.24 127.347 147.661 127.446L148.874 127.724C149.577 127.887 150.101 128.137 150.445 128.475C150.79 128.813 150.963 129.252 150.963 129.793C150.963 130.25 150.83 130.658 150.565 131.016C150.303 131.37 149.937 131.649 149.466 131.851C148.999 132.053 148.457 132.154 147.84 132.154C146.985 132.154 146.288 131.972 145.747 131.607C145.207 131.239 144.876 130.717 144.753 130.041L146.19 129.822C146.279 130.197 146.463 130.48 146.742 130.673C147.02 130.862 147.383 130.956 147.83 130.956C148.318 130.956 148.707 130.855 148.999 130.653C149.29 130.447 149.436 130.197 149.436 129.902C149.436 129.663 149.347 129.463 149.168 129.3C148.992 129.138 148.722 129.015 148.357 128.933L147.065 128.649C146.352 128.487 145.825 128.228 145.484 127.874C145.146 127.519 144.977 127.07 144.977 126.526C144.977 126.076 145.103 125.681 145.355 125.343C145.606 125.005 145.954 124.741 146.399 124.553C146.843 124.36 147.352 124.264 147.925 124.264C148.75 124.264 149.4 124.443 149.874 124.801C150.348 125.156 150.661 125.631 150.813 126.228ZM93.8097 152H92.1791L95.8431 141.818H97.618L101.282 152H99.6514L96.7728 143.668H96.6933L93.8097 152ZM94.0832 148.013H99.373V149.305H94.0832V148.013ZM105.727 152.154C104.988 152.154 104.351 151.987 103.818 151.652C103.287 151.314 102.88 150.848 102.595 150.255C102.31 149.662 102.167 148.982 102.167 148.217C102.167 147.441 102.313 146.757 102.604 146.163C102.896 145.567 103.307 145.101 103.837 144.766C104.368 144.432 104.993 144.264 105.712 144.264C106.292 144.264 106.809 144.372 107.263 144.587C107.717 144.799 108.083 145.098 108.362 145.482C108.643 145.867 108.811 146.316 108.864 146.83H107.417C107.337 146.472 107.155 146.163 106.87 145.905C106.588 145.646 106.211 145.517 105.737 145.517C105.322 145.517 104.959 145.626 104.648 145.845C104.34 146.061 104.099 146.369 103.927 146.77C103.755 147.168 103.668 147.638 103.668 148.182C103.668 148.739 103.753 149.219 103.922 149.624C104.091 150.028 104.33 150.341 104.638 150.563C104.949 150.785 105.316 150.896 105.737 150.896C106.018 150.896 106.274 150.845 106.502 150.742C106.734 150.636 106.928 150.485 107.084 150.29C107.243 150.094 107.354 149.859 107.417 149.584H108.864C108.811 150.078 108.65 150.518 108.381 150.906C108.113 151.294 107.753 151.599 107.303 151.821C106.855 152.043 106.33 152.154 105.727 152.154ZM114.018 144.364V145.557H109.847V144.364H114.018ZM110.965 142.534H112.452V149.758C112.452 150.046 112.495 150.263 112.581 150.409C112.667 150.552 112.778 150.649 112.914 150.702C113.054 150.752 113.204 150.777 113.367 150.777C113.486 150.777 113.59 150.769 113.68 150.752C113.769 150.736 113.839 150.722 113.889 150.712L114.157 151.94C114.071 151.973 113.948 152.007 113.789 152.04C113.63 152.076 113.431 152.096 113.193 152.099C112.802 152.106 112.437 152.036 112.099 151.891C111.761 151.745 111.487 151.519 111.279 151.214C111.07 150.91 110.965 150.527 110.965 150.066V142.534ZM120.5 148.833V144.364H121.991V152H120.53V150.678H120.45C120.274 151.085 119.993 151.425 119.605 151.697C119.22 151.965 118.741 152.099 118.168 152.099C117.678 152.099 117.243 151.992 116.866 151.776C116.491 151.558 116.196 151.234 115.981 150.807C115.768 150.379 115.662 149.851 115.662 149.221V144.364H117.149V149.042C117.149 149.562 117.293 149.977 117.581 150.285C117.87 150.593 118.244 150.747 118.705 150.747C118.983 150.747 119.26 150.678 119.535 150.538C119.814 150.399 120.044 150.189 120.226 149.907C120.412 149.625 120.503 149.267 120.5 148.833ZM126.211 152.169C125.727 152.169 125.289 152.08 124.898 151.901C124.507 151.718 124.197 151.455 123.969 151.11C123.743 150.765 123.631 150.343 123.631 149.842C123.631 149.411 123.713 149.057 123.879 148.778C124.045 148.5 124.269 148.28 124.55 148.117C124.832 147.955 125.147 147.832 125.495 147.749C125.843 147.666 126.198 147.603 126.559 147.56C127.016 147.507 127.387 147.464 127.672 147.431C127.958 147.395 128.165 147.337 128.294 147.257C128.423 147.178 128.488 147.048 128.488 146.869V146.835C128.488 146.4 128.365 146.064 128.12 145.825C127.878 145.587 127.517 145.467 127.036 145.467C126.536 145.467 126.141 145.578 125.853 145.8C125.568 146.019 125.371 146.263 125.261 146.531L123.864 146.213C124.03 145.749 124.272 145.375 124.59 145.089C124.912 144.801 125.281 144.592 125.699 144.463C126.116 144.33 126.556 144.264 127.016 144.264C127.321 144.264 127.644 144.301 127.986 144.374C128.33 144.443 128.652 144.572 128.95 144.761C129.252 144.95 129.499 145.22 129.691 145.572C129.883 145.92 129.979 146.372 129.979 146.929V152H128.528V150.956H128.468C128.372 151.148 128.228 151.337 128.035 151.523C127.843 151.708 127.596 151.862 127.295 151.985C126.993 152.108 126.632 152.169 126.211 152.169ZM126.534 150.976C126.945 150.976 127.296 150.895 127.588 150.732C127.883 150.57 128.107 150.358 128.259 150.096C128.415 149.831 128.493 149.547 128.493 149.246V148.261C128.44 148.314 128.337 148.364 128.185 148.411C128.035 148.454 127.865 148.492 127.672 148.525C127.48 148.555 127.293 148.583 127.111 148.609C126.928 148.633 126.776 148.652 126.653 148.669C126.365 148.705 126.101 148.767 125.863 148.853C125.628 148.939 125.439 149.063 125.296 149.226C125.157 149.385 125.087 149.597 125.087 149.862C125.087 150.23 125.223 150.509 125.495 150.697C125.767 150.883 126.113 150.976 126.534 150.976ZM133.446 141.818V152H131.959V141.818H133.446ZM138.737 152.154C137.984 152.154 137.336 151.993 136.793 151.672C136.253 151.347 135.835 150.891 135.54 150.305C135.248 149.715 135.103 149.024 135.103 148.232C135.103 147.449 135.248 146.76 135.54 146.163C135.835 145.567 136.246 145.101 136.773 144.766C137.303 144.432 137.923 144.264 138.632 144.264C139.063 144.264 139.481 144.335 139.885 144.478C140.29 144.621 140.652 144.844 140.974 145.149C141.295 145.454 141.549 145.85 141.735 146.337C141.92 146.821 142.013 147.41 142.013 148.102V148.629H135.943V147.516H140.556C140.556 147.125 140.477 146.778 140.318 146.477C140.159 146.172 139.935 145.931 139.647 145.756C139.362 145.58 139.027 145.492 138.642 145.492C138.225 145.492 137.86 145.595 137.549 145.8C137.24 146.003 137.002 146.268 136.833 146.596C136.667 146.921 136.584 147.274 136.584 147.655V148.525C136.584 149.035 136.674 149.469 136.853 149.827C137.035 150.185 137.288 150.459 137.613 150.648C137.938 150.833 138.318 150.926 138.752 150.926C139.033 150.926 139.29 150.886 139.522 150.807C139.754 150.724 139.955 150.601 140.124 150.439C140.293 150.277 140.422 150.076 140.512 149.837L141.919 150.091C141.806 150.505 141.604 150.868 141.312 151.18C141.024 151.488 140.661 151.728 140.223 151.901C139.789 152.07 139.294 152.154 138.737 152.154ZM149.385 146.228L148.037 146.467C147.981 146.294 147.892 146.13 147.769 145.974C147.65 145.819 147.487 145.691 147.282 145.592C147.076 145.492 146.819 145.442 146.511 145.442C146.09 145.442 145.739 145.537 145.457 145.726C145.175 145.911 145.035 146.152 145.035 146.447C145.035 146.702 145.129 146.907 145.318 147.063C145.507 147.219 145.812 147.347 146.233 147.446L147.446 147.724C148.148 147.887 148.672 148.137 149.017 148.475C149.361 148.813 149.534 149.252 149.534 149.793C149.534 150.25 149.401 150.658 149.136 151.016C148.874 151.37 148.508 151.649 148.037 151.851C147.57 152.053 147.028 152.154 146.412 152.154C145.557 152.154 144.859 151.972 144.319 151.607C143.778 151.239 143.447 150.717 143.324 150.041L144.761 149.822C144.851 150.197 145.035 150.48 145.313 150.673C145.591 150.862 145.954 150.956 146.402 150.956C146.889 150.956 147.278 150.855 147.57 150.653C147.862 150.447 148.008 150.197 148.008 149.902C148.008 149.663 147.918 149.463 147.739 149.3C147.563 149.138 147.293 149.015 146.929 148.933L145.636 148.649C144.924 148.487 144.397 148.228 144.055 147.874C143.717 147.519 143.548 147.07 143.548 146.526C143.548 146.076 143.674 145.681 143.926 145.343C144.178 145.005 144.526 144.741 144.97 144.553C145.414 144.36 145.923 144.264 146.496 144.264C147.321 144.264 147.971 144.443 148.445 144.801C148.919 145.156 149.232 145.631 149.385 146.228Z" fill="black"/>
<g clip-path="url(#clip0_240_451)">
<path d="M228.554 119.597C228.377 119.416 228.163 119.324 227.905 119.324C227.647 119.324 227.433 119.416 227.257 119.597C227.08 119.778 226.995 119.999 226.995 120.253V120.636C226.508 120.205 225.966 119.877 225.366 119.656C224.765 119.435 224.142 119.321 223.493 119.321C222.763 119.321 222.078 119.461 221.429 119.744C220.78 120.028 220.216 120.408 219.73 120.887C219.243 121.366 218.863 121.93 218.587 122.575C218.31 123.224 218.17 123.917 218.17 124.658C218.17 125.399 218.307 126.073 218.587 126.722C218.863 127.371 219.243 127.935 219.73 128.421C220.216 128.908 220.78 129.288 221.429 129.564C222.078 129.841 222.763 129.977 223.493 129.977C224.223 129.977 224.931 129.841 225.576 129.564C226.224 129.288 226.785 128.908 227.264 128.421C227.743 127.935 228.119 127.371 228.396 126.722C228.672 126.073 228.808 125.388 228.808 124.658V120.253C228.808 119.999 228.72 119.778 228.547 119.597H228.554ZM226.726 126.029C226.545 126.453 226.294 126.825 225.977 127.142C225.66 127.459 225.288 127.71 224.864 127.891C224.44 128.071 223.983 128.163 223.5 128.163C223.018 128.163 222.56 128.071 222.137 127.891C221.713 127.71 221.34 127.459 221.023 127.142C220.706 126.825 220.456 126.453 220.275 126.029C220.095 125.605 220.002 125.148 220.002 124.665C220.002 124.182 220.095 123.725 220.275 123.301C220.456 122.878 220.706 122.505 221.023 122.188C221.34 121.871 221.713 121.621 222.137 121.44C222.56 121.259 223.018 121.167 223.5 121.167C223.983 121.167 224.44 121.259 224.864 121.44C225.288 121.621 225.66 121.871 225.977 122.188C226.294 122.505 226.545 122.878 226.726 123.301C226.906 123.725 226.998 124.182 226.998 124.665C226.998 125.148 226.906 125.605 226.726 126.029Z" fill="white"/>
<path d="M218.745 131.923C218.639 131.695 218.62 131.459 218.694 131.215C218.768 130.972 218.919 130.799 219.147 130.688C219.284 130.622 219.416 130.589 219.553 130.589C219.715 130.589 219.87 130.633 220.017 130.722C220.165 130.81 220.286 130.935 220.382 131.098C220.677 131.691 221.108 132.159 221.665 132.502C222.225 132.845 222.833 133.018 223.497 133.018C224.16 133.018 224.787 132.845 225.347 132.502C225.907 132.159 226.335 131.691 226.63 131.098C226.711 130.935 226.825 130.81 226.973 130.722C227.12 130.633 227.275 130.589 227.437 130.589C227.868 130.589 228.16 130.799 228.307 131.215C228.388 131.444 228.373 131.68 228.267 131.923C228.038 132.369 227.754 132.771 227.419 133.136C227.083 133.501 226.707 133.81 226.295 134.065C225.882 134.319 225.443 134.518 224.971 134.651C224.499 134.787 224.005 134.854 223.493 134.854C222.483 134.854 221.551 134.592 220.703 134.065C219.855 133.538 219.199 132.823 218.742 131.92L218.745 131.923Z" fill="white"/>
<path d="M218.745 136.741C218.639 136.512 218.62 136.276 218.694 136.033C218.768 135.79 218.919 135.617 219.147 135.506C219.284 135.44 219.416 135.406 219.553 135.406C219.715 135.406 219.87 135.451 220.017 135.539C220.165 135.628 220.286 135.753 220.382 135.915C220.677 136.509 221.108 136.977 221.665 137.32C222.225 137.662 222.833 137.836 223.497 137.836C224.16 137.836 224.787 137.662 225.347 137.32C225.907 136.977 226.335 136.509 226.63 135.915C226.711 135.753 226.825 135.628 226.973 135.539C227.12 135.451 227.275 135.406 227.437 135.406C227.868 135.406 228.16 135.617 228.307 136.033C228.388 136.262 228.373 136.498 228.267 136.741C228.038 137.187 227.754 137.589 227.419 137.954C227.083 138.318 226.707 138.628 226.295 138.882C225.882 139.137 225.443 139.336 224.971 139.469C224.499 139.605 224.005 139.671 223.493 139.671C222.483 139.671 221.551 139.41 220.703 138.882C219.855 138.355 219.199 137.64 218.742 136.737L218.745 136.741Z" fill="#D54D2F"/>
</g>
<defs>
<filter id="filter0_f_240_451" x="13.2866" y="19.8893" width="214.749" height="214.749" filterUnits="userSpaceOnUse" color-interpolation-filters="sRGB">
<feFlood flood-opacity="0" result="BackgroundImageFix"/>
<feBlend mode="normal" in="SourceGraphic" in2="BackgroundImageFix" result="shape"/>
<feGaussianBlur stdDeviation="5.20605" result="effect1_foregroundBlur_240_451"/>
</filter>
<filter id="filter1_f_240_451" x="194.197" y="99.8755" width="58.998" height="58.998" filterUnits="userSpaceOnUse" color-interpolation-filters="sRGB">
<feFlood flood-opacity="0" result="BackgroundImageFix"/>
<feBlend mode="normal" in="SourceGraphic" in2="BackgroundImageFix" result="shape"/>
<feGaussianBlur stdDeviation="3.90454" result="effect1_foregroundBlur_240_451"/>
</filter>
<clipPath id="clip0_240_451">
<rect x="210" y="116" width="27" height="27" rx="6.54545" fill="white"/>
</clipPath>
</defs>
</svg>
