<?xml version="1.0" encoding="UTF-8"?>
<svg id="Capa_2" xmlns="http://www.w3.org/2000/svg" viewBox="0 0 34.84 65.94">
  <defs>
    <style>
      .cls-1 {
        fill: none;
      }

      .cls-2 {
        fill: #d54d2f;
      }

      .cls-3 {
        fill: #fff;
      }
    </style>
  </defs>
  <g id="Capa_1-2" data-name="Capa_1">
    <g>
      <rect class="cls-1" width="34.84" height="65.94"/>
      <g>
        <path class="cls-3" d="M31.32,5.74c-.48-.5-1.08-.75-1.78-.75s-1.3.25-1.78.75c-.48.5-.72,1.1-.72,1.81v1.06c-1.33-1.19-2.83-2.09-4.48-2.7-1.65-.61-3.37-.92-5.14-.92-2,0-3.89.39-5.67,1.17-1.78.78-3.34,1.83-4.67,3.14-1.34,1.32-2.38,2.86-3.14,4.64-.76,1.78-1.14,3.69-1.14,5.73s.38,3.89,1.14,5.67c.76,1.78,1.81,3.34,3.14,4.67,1.33,1.34,2.89,2.38,4.67,3.14,1.78.76,3.67,1.14,5.67,1.14s3.95-.38,5.73-1.14c1.78-.76,3.33-1.81,4.64-3.14,1.32-1.33,2.35-2.89,3.11-4.67.76-1.78,1.14-3.67,1.14-5.67V7.54c0-.7-.24-1.31-.72-1.81ZM26.29,23.42c-.5,1.17-1.19,2.19-2.06,3.06s-1.89,1.56-3.06,2.06c-1.17.5-2.42.75-3.75.75s-2.59-.25-3.75-.75c-1.17-.5-2.19-1.19-3.06-2.06-.87-.87-1.56-1.89-2.06-3.06-.5-1.17-.75-2.42-.75-3.75s.25-2.59.75-3.75c.5-1.17,1.19-2.19,2.06-3.06.87-.87,1.89-1.56,3.06-2.06,1.17-.5,2.42-.75,3.75-.75s2.59.25,3.75.75c1.17.5,2.19,1.19,3.06,2.06.87.87,1.56,1.89,2.06,3.06.5,1.17.75,2.42.75,3.75s-.25,2.59-.75,3.75Z"/>
        <path class="cls-3" d="M4.35,39.64c-.3-.63-.34-1.28-.14-1.95.2-.67.62-1.15,1.25-1.45.37-.19.74-.28,1.11-.28.44,0,.87.12,1.28.36.41.24.74.58,1,1.03.82,1.63,1.99,2.92,3.53,3.87,1.54.95,3.22,1.42,5.03,1.42s3.55-.47,5.09-1.42c1.54-.95,2.72-2.23,3.53-3.87.22-.45.54-.79.95-1.03.41-.24.83-.36,1.28-.36,1.19,0,1.98.57,2.39,1.72.22.63.19,1.28-.11,1.95-.63,1.22-1.41,2.34-2.34,3.34-.93,1-1.96,1.85-3.09,2.56-1.13.7-2.35,1.24-3.64,1.61-1.3.37-2.65.56-4.06.56-2.78,0-5.34-.72-7.68-2.17-2.34-1.45-4.14-3.41-5.4-5.9Z"/>
        <path class="cls-2" d="M4.35,52.89c-.3-.63-.34-1.28-.14-1.95.2-.67.62-1.15,1.25-1.45.37-.19.74-.28,1.11-.28.44,0,.87.12,1.28.36.41.24.74.58,1,1.03.82,1.63,1.99,2.92,3.53,3.87,1.54.95,3.22,1.42,5.03,1.42s3.55-.47,5.09-1.42c1.54-.95,2.72-2.23,3.53-3.87.22-.45.54-.79.95-1.03.41-.24.83-.36,1.28-.36,1.19,0,1.98.57,2.39,1.72.22.63.19,1.28-.11,1.95-.63,1.22-1.41,2.34-2.34,3.34-.93,1-1.96,1.85-3.09,2.56-1.13.7-2.35,1.24-3.64,1.61-1.3.37-2.65.56-4.06.56-2.78,0-5.34-.72-7.68-2.17-2.34-1.45-4.14-3.41-5.4-5.9Z"/>
      </g>
    </g>
  </g>
</svg>