<svg width="66" height="66" viewBox="0 0 66 66" fill="none" xmlns="http://www.w3.org/2000/svg">
<g clip-path="url(#clip0_2_738)">
<rect width="65.05" height="65.05" rx="8" fill="#363636"/>
<path d="M44.7018 8.66605C44.2756 8.2309 43.7605 8.00888 43.1388 8.00888C42.5172 8.00888 42.0021 8.2309 41.5758 8.66605C41.1496 9.1012 40.9453 9.63404 40.9453 10.2468V11.1704C39.7731 10.1314 38.4676 9.34098 37.0201 8.80814C35.5725 8.2753 34.0717 8 32.5087 8C30.7503 8 29.0985 8.33746 27.5355 9.02127C25.9726 9.70508 24.6138 10.6198 23.4416 11.7743C22.2693 12.9288 21.3546 14.2875 20.6886 15.8416C20.0225 17.4046 19.6851 19.0742 19.6851 20.8592C19.6851 22.6442 20.0136 24.2693 20.6886 25.8323C21.3546 27.3953 22.2693 28.7541 23.4416 29.9263C24.6138 31.0985 25.9726 32.0133 27.5355 32.6793C29.0985 33.3454 30.7503 33.6739 32.5087 33.6739C34.2671 33.6739 35.9722 33.3454 37.5263 32.6793C39.0893 32.0133 40.4391 31.0985 41.5936 29.9263C42.7481 28.7541 43.6539 27.3953 44.32 25.8323C44.986 24.2693 45.3146 22.6175 45.3146 20.8592V10.2468C45.3146 9.63404 45.1015 9.1012 44.6841 8.66605H44.7018ZM40.297 24.1628C39.8619 25.184 39.258 26.081 38.4943 26.8447C37.7305 27.6085 36.8336 28.2123 35.8123 28.6475C34.791 29.0826 33.6898 29.3047 32.5265 29.3047C31.3631 29.3047 30.2619 29.0826 29.2406 28.6475C28.2194 28.2123 27.3224 27.6085 26.5587 26.8447C25.7949 26.081 25.1911 25.184 24.7559 24.1628C24.3208 23.1415 24.0987 22.0403 24.0987 20.8769C24.0987 19.7136 24.3208 18.6124 24.7559 17.5911C25.1911 16.5698 25.7949 15.6729 26.5587 14.9091C27.3224 14.1454 28.2194 13.5415 29.2406 13.1064C30.2619 12.6712 31.3631 12.4492 32.5265 12.4492C33.6898 12.4492 34.791 12.6712 35.8123 13.1064C36.8336 13.5415 37.7305 14.1454 38.4943 14.9091C39.258 15.6729 39.8619 16.5698 40.297 17.5911C40.7322 18.6124 40.9542 19.7136 40.9542 20.8769C40.9542 22.0403 40.7322 23.1415 40.297 24.1628Z" fill="white"/>
<path d="M21.0703 38.3629C20.8128 37.8123 20.7684 37.244 20.946 36.6578C21.1236 36.0717 21.4877 35.6543 22.0383 35.3879C22.3669 35.2281 22.6866 35.1481 23.0152 35.1481C23.4059 35.1481 23.7789 35.2547 24.1342 35.4678C24.4894 35.681 24.7824 35.9829 25.0133 36.3737C25.7238 37.8034 26.7628 38.9313 28.1038 39.7572C29.4537 40.5831 30.919 41.0005 32.5175 41.0005C34.116 41.0005 35.6257 40.5831 36.9756 39.7572C38.3254 38.9313 39.3556 37.8034 40.066 36.3737C40.2614 35.9829 40.5367 35.681 40.8919 35.4678C41.2472 35.2547 41.6201 35.1481 42.0109 35.1481C43.0499 35.1481 43.7515 35.6543 44.1067 36.6578C44.3021 37.2084 44.2666 37.7768 44.009 38.3629C43.4584 39.4375 42.7746 40.4055 41.9665 41.2847C41.1583 42.1638 40.2525 42.9098 39.2579 43.5226C38.2633 44.1353 37.2065 44.6149 36.0697 44.9346C34.933 45.2632 33.743 45.423 32.5086 45.423C30.0753 45.423 27.8285 44.7925 25.786 43.5226C23.7434 42.2526 22.1627 40.5298 21.0615 38.354L21.0703 38.3629Z" fill="white"/>
<path d="M21.0703 49.9699C20.8128 49.4193 20.7684 48.8509 20.946 48.2648C21.1236 47.6787 21.4877 47.2613 22.0383 46.9948C22.3669 46.835 22.6866 46.7551 23.0152 46.7551C23.4059 46.7551 23.7789 46.8616 24.1342 47.0748C24.4894 47.2879 24.7824 47.5898 25.0133 47.9806C25.7238 49.4104 26.7628 50.5382 28.1038 51.3641C29.4537 52.19 30.919 52.6074 32.5175 52.6074C34.116 52.6074 35.6257 52.19 36.9756 51.3641C38.3254 50.5382 39.3556 49.4104 40.066 47.9806C40.2614 47.5898 40.5367 47.2879 40.8919 47.0748C41.2472 46.8616 41.6201 46.7551 42.0109 46.7551C43.0499 46.7551 43.7515 47.2613 44.1067 48.2648C44.3021 48.8154 44.2666 49.3837 44.009 49.9699C43.4584 51.0444 42.7746 52.0124 41.9665 52.8916C41.1583 53.7708 40.2525 54.5167 39.2579 55.1295C38.2633 55.7423 37.2065 56.2218 36.0697 56.5415C34.933 56.8701 33.743 57.03 32.5086 57.03C30.0753 57.03 27.8285 56.3994 25.786 55.1295C23.7434 53.8596 22.1627 52.1367 21.0615 49.961L21.0703 49.9699Z" fill="#D54D2F"/>
</g>
<rect x="1" y="1" width="63.05" height="63.05" rx="7" stroke="#363636" stroke-width="2"/>
<defs>
<clipPath id="clip0_2_738">
<rect width="65.05" height="65.05" rx="8" fill="white"/>
</clipPath>
</defs>
</svg>
