<?xml version="1.0" encoding="UTF-8"?>
<svg id="Capa_2" xmlns="http://www.w3.org/2000/svg" viewBox="0 0 65.05 65.05">
  <defs>
    <style>
      .cls-1 {
        fill: none;
      }

      .cls-2 {
        fill: #d54d2f;
      }

      .cls-3 {
        fill: #363636;
      }
    </style>
  </defs>
  <g id="Capa_1-2" data-name="Capa_1">
    <g>
      <rect class="cls-1" width="65.05" height="65.05"/>
      <g>
        <path class="cls-3" d="M46.24,5.66c-.48-.49-1.06-.74-1.76-.74s-1.28.25-1.76.74c-.48.49-.71,1.09-.71,1.78v1.04c-1.32-1.17-2.79-2.06-4.42-2.66-1.63-.6-3.32-.91-5.08-.91-1.98,0-3.84.38-5.6,1.15-1.76.77-3.29,1.8-4.61,3.1-1.32,1.3-2.35,2.83-3.1,4.58-.75,1.76-1.13,3.64-1.13,5.65s.37,3.84,1.13,5.6c.75,1.76,1.78,3.29,3.1,4.61,1.32,1.32,2.85,2.35,4.61,3.1,1.76.75,3.62,1.12,5.6,1.12s3.9-.37,5.65-1.12c1.76-.75,3.28-1.78,4.58-3.1,1.3-1.32,2.32-2.85,3.07-4.61.75-1.76,1.12-3.62,1.12-5.6V7.44c0-.69-.24-1.29-.71-1.78ZM41.28,23.11c-.49,1.15-1.17,2.16-2.03,3.02s-1.87,1.54-3.02,2.03c-1.15.49-2.39.74-3.7.74s-2.55-.25-3.7-.74c-1.15-.49-2.16-1.17-3.02-2.03-.86-.86-1.54-1.87-2.03-3.02-.49-1.15-.74-2.39-.74-3.7s.25-2.55.74-3.7c.49-1.15,1.17-2.16,2.03-3.02.86-.86,1.87-1.54,3.02-2.03,1.15-.49,2.39-.74,3.7-.74s2.55.25,3.7.74c1.15.49,2.16,1.17,3.02,2.03.86.86,1.54,1.87,2.03,3.02.49,1.15.74,2.39.74,3.7s-.25,2.55-.74,3.7Z"/>
        <path class="cls-3" d="M19.63,39.1c-.29-.62-.34-1.26-.14-1.92.2-.66.61-1.13,1.23-1.43.37-.18.73-.27,1.1-.27.44,0,.86.12,1.26.36.4.24.73.58.99,1.02.8,1.61,1.97,2.88,3.48,3.81,1.52.93,3.17,1.4,4.97,1.4s3.5-.47,5.02-1.4c1.52-.93,2.68-2.2,3.48-3.81.22-.44.53-.78.93-1.02.4-.24.82-.36,1.26-.36,1.17,0,1.96.57,2.36,1.7.22.62.18,1.26-.11,1.92-.62,1.21-1.39,2.3-2.3,3.29-.91.99-1.93,1.83-3.05,2.52-1.12.69-2.31,1.23-3.59,1.59-1.28.37-2.62.55-4.01.55-2.74,0-5.27-.71-7.57-2.14-2.3-1.43-4.08-3.37-5.32-5.82Z"/>
        <path class="cls-2" d="M19.63,52.17c-.29-.62-.34-1.26-.14-1.92.2-.66.61-1.13,1.23-1.43.37-.18.73-.27,1.1-.27.44,0,.86.12,1.26.36.4.24.73.58.99,1.02.8,1.61,1.97,2.88,3.48,3.81,1.52.93,3.17,1.4,4.97,1.4s3.5-.47,5.02-1.4c1.52-.93,2.68-2.2,3.48-3.81.22-.44.53-.78.93-1.02.4-.24.82-.36,1.26-.36,1.17,0,1.96.57,2.36,1.7.22.62.18,1.26-.11,1.92-.62,1.21-1.39,2.3-2.3,3.29-.91.99-1.93,1.83-3.05,2.52-1.12.69-2.31,1.23-3.59,1.59-1.28.37-2.62.55-4.01.55-2.74,0-5.27-.71-7.57-2.14-2.3-1.43-4.08-3.37-5.32-5.82Z"/>
      </g>
    </g>
  </g>
</svg>