<?xml version="1.0" encoding="UTF-8"?>
<svg id="Capa_2" xmlns="http://www.w3.org/2000/svg" viewBox="0 0 483.85 135.82">
  <defs>
    <style>
      .cls-1 {
        fill: none;
      }

      .cls-2 {
        fill: #d54d2f;
      }

      .cls-3 {
        fill: #fff;
      }

      .cls-4 {
        fill: #ececec;
      }
    </style>
  </defs>
  <g id="Capa_1-2" data-name="Capa_1">
    <g>
      <g>
        <path class="cls-3" d="M58.53,32.26c-.83-.86-1.85-1.29-3.06-1.29s-2.23.43-3.06,1.29c-.83.86-1.24,1.9-1.24,3.1v1.81c-2.29-2.04-4.86-3.58-7.69-4.63-2.83-1.05-5.78-1.58-8.84-1.58-3.44,0-6.69.67-9.74,2.01-3.06,1.34-5.73,3.14-8.02,5.4-2.29,2.26-4.09,4.92-5.4,7.98-1.31,3.06-1.96,6.34-1.96,9.84s.65,6.69,1.96,9.74c1.3,3.06,3.1,5.73,5.4,8.02,2.29,2.29,4.97,4.09,8.02,5.4,3.06,1.31,6.3,1.96,9.74,1.96s6.78-.65,9.84-1.96c3.06-1.3,5.71-3.1,7.98-5.4,2.26-2.29,4.04-4.97,5.35-8.02,1.3-3.06,1.96-6.3,1.96-9.74v-20.82c0-1.21-.41-2.25-1.24-3.1ZM49.88,62.64c-.86,2.01-2.04,3.76-3.53,5.25s-3.25,2.67-5.25,3.53c-2.01.86-4.16,1.29-6.45,1.29s-4.44-.43-6.45-1.29c-2.01-.86-3.76-2.04-5.25-3.53-1.5-1.5-2.67-3.25-3.53-5.25-.86-2.01-1.29-4.16-1.29-6.45s.43-4.44,1.29-6.45c.86-2.01,2.04-3.76,3.53-5.25,1.5-1.5,3.25-2.67,5.25-3.53,2.01-.86,4.16-1.29,6.45-1.29s4.44.43,6.45,1.29c2.01.86,3.76,2.04,5.25,3.53,1.5,1.5,2.67,3.25,3.53,5.25.86,2.01,1.29,4.15,1.29,6.45s-.43,4.44-1.29,6.45Z"/>
        <path class="cls-3" d="M112.26,46.35c-1.31-3.06-3.09-5.71-5.35-7.98-2.26-2.26-4.92-4.06-7.98-5.4-3.06-1.34-6.34-2.01-9.84-2.01s-6.69.67-9.74,2.01c-3.06,1.34-5.73,3.14-8.02,5.4-2.29,2.26-4.09,4.92-5.4,7.98-1.31,3.06-1.96,6.34-1.96,9.84s.65,6.69,1.96,9.74c1.3,3.06,3.1,5.73,5.4,8.02,2.29,2.29,4.97,4.09,8.02,5.4,3.06,1.31,6.3,1.96,9.74,1.96,3.06,0,6-.53,8.84-1.58,2.83-1.05,5.4-2.59,7.69-4.63v1.91c0,1.21.41,2.23,1.24,3.06.83.83,1.85,1.24,3.06,1.24s2.23-.41,3.06-1.24c.83-.83,1.24-1.85,1.24-3.06v-20.82c0-3.5-.65-6.78-1.96-9.84ZM104.33,62.64c-.86,2.01-2.04,3.76-3.53,5.25s-3.25,2.67-5.25,3.53c-2.01.86-4.16,1.29-6.45,1.29s-4.44-.43-6.45-1.29c-2.01-.86-3.76-2.04-5.25-3.53-1.5-1.5-2.67-3.25-3.53-5.25-.86-2.01-1.29-4.16-1.29-6.45s.43-4.44,1.29-6.45c.86-2.01,2.04-3.76,3.53-5.25,1.5-1.5,3.25-2.67,5.25-3.53,2.01-.86,4.16-1.29,6.45-1.29s4.44.43,6.45,1.29c2.01.86,3.76,2.04,5.25,3.53,1.5,1.5,2.67,3.25,3.53,5.25.86,2.01,1.29,4.15,1.29,6.45s-.43,4.44-1.29,6.45Z"/>
        <path class="cls-3" d="M12.2,90.48c-.51-1.08-.59-2.2-.24-3.34.35-1.15,1.07-1.97,2.15-2.48.64-.32,1.27-.48,1.91-.48.76,0,1.5.21,2.2.62.7.41,1.27,1,1.72,1.77,1.4,2.8,3.42,5.01,6.07,6.64,2.64,1.62,5.52,2.44,8.64,2.44s6.1-.81,8.74-2.44c2.64-1.62,4.66-3.84,6.07-6.64.38-.76.92-1.35,1.62-1.77.7-.42,1.43-.62,2.2-.62,2.04,0,3.41.99,4.11,2.96.38,1.08.32,2.2-.19,3.34-1.08,2.1-2.42,4.01-4.01,5.73-1.59,1.72-3.36,3.18-5.3,4.39-1.94,1.21-4.03,2.13-6.26,2.77-2.23.64-4.55.96-6.97.96-4.78,0-9.17-1.24-13.18-3.73-4.01-2.48-7.1-5.86-9.27-10.12Z"/>
        <path class="cls-3" d="M143.92,31.54c1.21,0,2.23.42,3.06,1.24.83.83,1.24,1.85,1.24,3.06s-.41,2.23-1.24,3.06-1.85,1.24-3.06,1.24h-7.83c-2.04,0-3.76.69-5.16,2.05-1.4,1.37-2.1,3.07-2.1,5.11v29.71c0,1.21-.42,2.23-1.24,3.06-.83.83-1.85,1.24-3.06,1.24s-2.23-.41-3.06-1.24c-.83-.83-1.24-1.85-1.24-3.06v-29.71c0-2.23.41-4.3,1.24-6.21.83-1.91,1.96-3.58,3.39-5.01,1.43-1.43,3.12-2.55,5.06-3.34,1.94-.8,4-1.19,6.16-1.19h7.83Z"/>
        <path class="cls-3" d="M197.03,57.72c-.7-1.02-1.62-1.62-2.77-1.81-1.21-.25-2.29-.05-3.25.62-.96.67-1.56,1.61-1.81,2.82-.38,1.91-1.07,3.69-2.05,5.35-.99,1.66-2.2,3.07-3.63,4.25-1.43,1.18-3.04,2.1-4.82,2.77-1.78.67-3.66,1-5.64,1-2.17,0-4.27-.41-6.3-1.24-2.04-.83-3.85-2.04-5.44-3.63l31.9-18.34c1.02-.64,1.69-1.53,2.01-2.67.32-1.15.16-2.23-.48-3.25-2.36-4.01-5.48-7.12-9.36-9.31-3.89-2.2-8.02-3.3-12.42-3.3s-8.57,1.15-12.51,3.44c-2.99,1.72-5.49,3.92-7.5,6.59-2.01,2.67-3.42,5.56-4.25,8.64-.83,3.09-1.05,6.29-.67,9.6.38,3.31,1.43,6.46,3.15,9.46,2.36,4.08,5.49,7.2,9.41,9.36,3.92,2.17,8.07,3.25,12.47,3.25,2.99,0,5.86-.51,8.6-1.53,2.74-1.02,5.19-2.42,7.36-4.2,2.16-1.78,4.01-3.93,5.54-6.45,1.53-2.52,2.58-5.24,3.15-8.17.19-1.08-.03-2.16-.67-3.25ZM157.01,60.39c-.45-1.78-.61-3.58-.48-5.4.13-1.81.53-3.53,1.19-5.16.67-1.62,1.61-3.12,2.82-4.49,1.21-1.37,2.61-2.53,4.2-3.49,1.27-.76,2.61-1.32,4.01-1.67,1.4-.35,2.8-.53,4.2-.53,2.16,0,4.25.4,6.26,1.19,2.01.8,3.8,1.99,5.4,3.58l-27.61,15.95Z"/>
        <path class="cls-3" d="M233.24,36.61c1.34-1.59,3.09-2.91,5.25-3.96,2.16-1.05,4.93-1.58,8.31-1.58,2.29-.13,4.52.21,6.69,1,2.16.8,4.07,2.02,5.73,3.68,1.34,1.34,2.35,2.8,3.06,4.39.7,1.59,1.21,3.14,1.53,4.63.32,1.5.49,2.83.53,4.01.03,1.18.05,1.99.05,2.44v25.79c0,1.21-.43,2.23-1.29,3.06-.86.83-1.86,1.24-3.01,1.24-1.21,0-2.24-.41-3.1-1.24-.86-.83-1.29-1.85-1.29-3.06v-17.91c0-1.56.03-2.98.1-4.25v-4.11c.06-1.08.03-2.17-.1-3.25-.13-.89-.37-1.86-.72-2.91-.35-1.05-.94-1.99-1.77-2.82-1.91-1.59-4.04-2.29-6.4-2.1-1.91,0-3.46.32-4.63.96-1.18.64-2.1,1.42-2.77,2.34-.67.92-1.13,1.91-1.39,2.96-.25,1.05-.42,1.99-.48,2.82,0,.13.02.64.05,1.53.03.89.05,2.01.05,3.34s-.02,2.85-.05,4.54c-.03,1.69-.05,3.39-.05,5.11v13.75c0,1.21-.42,2.23-1.24,3.06-.83.83-1.85,1.24-3.06,1.24s-2.23-.41-3.06-1.24c-.83-.83-1.24-1.85-1.24-3.06v-28.66c0-2.48-.86-4.68-2.58-6.59-.89-.76-1.9-1.34-3.01-1.72-1.11-.38-2.24-.51-3.39-.38-2.48,0-4.36.53-5.64,1.58-1.27,1.05-2.17,2.23-2.67,3.53-.51,1.31-.78,2.55-.81,3.73-.03,1.18-.05,1.9-.05,2.15v4.16c0,1.24.02,2.66.05,4.25.03,1.59.05,3.22.05,4.87v13.09c0,1.21-.43,2.23-1.29,3.06-.86.83-1.9,1.24-3.1,1.24-1.15,0-2.15-.41-3.01-1.24-.86-.83-1.29-1.85-1.29-3.06v-25.79c0-.45.01-1.24.05-2.39.03-1.15.19-2.47.48-3.96.29-1.5.78-3.06,1.48-4.68.7-1.62,1.72-3.1,3.06-4.44,1.34-1.34,3.04-2.45,5.11-3.34,2.07-.89,4.6-1.34,7.59-1.34,2.29-.13,4.54.21,6.73,1,2.2.8,4.12,1.99,5.78,3.58.25.25.51.57.76.96Z"/>
      </g>
      <g>
        <path class="cls-2" d="M272.68,18.46c-1.21,0-2.23-.41-3.06-1.24-.83-.83-1.24-1.85-1.24-3.06s.41-2.23,1.24-3.06,1.85-1.24,3.06-1.24h52.25c1.21,0,2.23.42,3.06,1.24.83.83,1.24,1.85,1.24,3.06s-.42,2.23-1.24,3.06-1.85,1.24-3.06,1.24h-21.78v58.55c0,1.21-.42,2.23-1.24,3.06-.83.83-1.85,1.24-3.06,1.24s-2.23-.41-3.06-1.24c-.83-.83-1.24-1.85-1.24-3.06l-.09-58.55h-21.78Z"/>
        <path class="cls-2" d="M367.06,57.72c-.7-1.02-1.62-1.62-2.77-1.81-1.21-.25-2.29-.05-3.25.62-.96.67-1.56,1.61-1.82,2.82-.38,1.91-1.07,3.69-2.05,5.35-.99,1.66-2.2,3.07-3.63,4.25-1.43,1.18-3.04,2.1-4.82,2.77-1.78.67-3.66,1-5.64,1-2.17,0-4.27-.41-6.3-1.24-2.04-.83-3.85-2.04-5.44-3.63l31.9-18.34c1.02-.64,1.69-1.53,2.01-2.67.32-1.15.16-2.23-.48-3.25-2.36-4.01-5.48-7.12-9.36-9.31-3.88-2.2-8.02-3.3-12.42-3.3s-8.57,1.15-12.51,3.44c-2.99,1.72-5.49,3.92-7.5,6.59-2.01,2.67-3.42,5.56-4.25,8.64-.83,3.09-1.05,6.29-.67,9.6.38,3.31,1.43,6.46,3.15,9.46,2.35,4.08,5.49,7.2,9.41,9.36,3.92,2.17,8.07,3.25,12.47,3.25,2.99,0,5.86-.51,8.6-1.53,2.74-1.02,5.19-2.42,7.36-4.2,2.16-1.78,4.01-3.93,5.54-6.45,1.53-2.52,2.58-5.24,3.15-8.17.19-1.08-.03-2.16-.67-3.25ZM327.04,60.39c-.45-1.78-.61-3.58-.48-5.4.13-1.81.53-3.53,1.19-5.16.67-1.62,1.61-3.12,2.82-4.49,1.21-1.37,2.61-2.53,4.2-3.49,1.27-.76,2.61-1.32,4.01-1.67,1.4-.35,2.8-.53,4.2-.53,2.16,0,4.25.4,6.26,1.19,2.01.8,3.8,1.99,5.4,3.58l-27.61,15.95Z"/>
        <path class="cls-2" d="M408.32,66.89c.89-.96,1.97-1.43,3.25-1.43,1.08,0,2.01.35,2.77,1.05.89.7,1.4,1.66,1.53,2.87.13,1.21-.22,2.26-1.05,3.15-2.42,2.87-5.29,5.05-8.6,6.54-3.31,1.5-6.82,2.25-10.51,2.25-3.44,0-6.69-.65-9.74-1.96-3.06-1.3-5.73-3.1-8.02-5.4-2.29-2.29-4.09-4.97-5.4-8.02-1.31-3.06-1.96-6.3-1.96-9.74s.65-6.78,1.96-9.84c1.3-3.06,3.1-5.71,5.4-7.98,2.29-2.26,4.97-4.04,8.02-5.35,3.06-1.3,6.3-1.96,9.74-1.96,3.69-.06,7.2.67,10.51,2.2,3.31,1.53,6.18,3.69,8.6,6.5.83.89,1.18,1.94,1.05,3.15-.13,1.08-.61,2.02-1.43,2.82-.83.8-1.78,1.19-2.87,1.19-1.27,0-2.36-.51-3.25-1.53-1.59-1.85-3.49-3.26-5.68-4.25-2.2-.99-4.51-1.48-6.93-1.48-2.29,0-4.44.43-6.45,1.29-2.01.86-3.76,2.04-5.25,3.53-1.5,1.5-2.67,3.25-3.53,5.25-.86,2.01-1.29,4.15-1.29,6.45s.43,4.44,1.29,6.45c.86,2.01,2.04,3.76,3.53,5.25,1.5,1.5,3.25,2.67,5.25,3.53,2.01.86,4.16,1.29,6.45,1.29,2.42,0,4.73-.51,6.93-1.53,2.2-1.02,4.09-2.45,5.68-4.3Z"/>
        <path class="cls-2" d="M429.72,77.01c0,1.21-.42,2.23-1.24,3.06-.83.83-1.85,1.24-3.06,1.24s-2.23-.41-3.06-1.24c-.83-.83-1.24-1.85-1.24-3.06V13.78c0-1.21.41-2.23,1.24-3.06s1.85-1.24,3.06-1.24,2.23.42,3.06,1.24c.83.83,1.24,1.85,1.24,3.06v23.4c2.29-2.04,4.86-3.58,7.69-4.63,2.83-1.05,5.78-1.58,8.84-1.58,3.5,0,6.78.67,9.84,2.01,3.06,1.34,5.71,3.14,7.98,5.4,2.26,2.26,4.04,4.92,5.35,7.98,1.3,3.06,1.96,6.34,1.96,9.84v20.82c0,1.21-.42,2.23-1.24,3.06-.83.83-1.85,1.24-3.06,1.24s-2.23-.41-3.06-1.24c-.83-.83-1.24-1.85-1.24-3.06v-20.82c0-2.29-.43-4.44-1.29-6.45-.86-2.01-2.04-3.76-3.53-5.25-1.5-1.5-3.25-2.67-5.25-3.53-2.01-.86-4.16-1.29-6.45-1.29s-4.44.43-6.45,1.29c-2.01.86-3.76,2.04-5.25,3.53-1.5,1.5-2.67,3.25-3.53,5.25-.86,2.01-1.29,4.15-1.29,6.45v20.82Z"/>
        <path class="cls-2" d="M12.2,113.24c-.51-1.08-.59-2.2-.24-3.34.35-1.15,1.07-1.97,2.15-2.48.64-.32,1.27-.48,1.91-.48.76,0,1.5.21,2.2.62.7.41,1.27,1,1.72,1.77,1.4,2.8,3.42,5.01,6.07,6.64,2.64,1.62,5.52,2.44,8.64,2.44s6.1-.81,8.74-2.44c2.64-1.62,4.66-3.84,6.07-6.64.38-.76.92-1.35,1.62-1.77.7-.42,1.43-.62,2.2-.62,2.04,0,3.41.99,4.11,2.96.38,1.08.32,2.2-.19,3.34-1.08,2.1-2.42,4.01-4.01,5.73-1.59,1.72-3.36,3.18-5.3,4.39-1.94,1.21-4.03,2.13-6.26,2.77-2.23.64-4.55.96-6.97.96-4.78,0-9.17-1.24-13.18-3.73-4.01-2.48-7.1-5.86-9.27-10.12Z"/>
      </g>
      <g>
        <path class="cls-4" d="M176.08,119.84v-18.22c0-.67.49-1.16,1.16-1.16.41,0,.75.17,1.01.61l7.48,13.05,7.48-13.05c.26-.44.64-.61,1.02-.61.67,0,1.16.49,1.16,1.16v18.22c0,.64-.52,1.16-1.16,1.16s-1.16-.52-1.16-1.16v-14.07l-6.27,10.79c-.29.49-.55.73-1.07.73s-.81-.23-1.1-.73l-6.24-10.79v14.07c0,.64-.52,1.16-1.16,1.16s-1.16-.52-1.16-1.16Z"/>
        <path class="cls-4" d="M198.73,113.35c0-4.55,3.42-7.92,7.92-7.92,2.18,0,4.03.78,5.4,2.09v-.67c0-.64.52-1.16,1.16-1.16s1.16.52,1.16,1.16v11.08c0,.64.32.93.96.93s1.01.49,1.01.96c0,.87-.64,1.19-1.3,1.19h-.55c-1.13,0-2.32-.67-2.44-1.83-1.31,1.3-3.19,2.09-5.4,2.09-4.55,0-7.92-3.34-7.92-7.92ZM206.65,119.06c3.19,0,5.54-2.35,5.54-5.71s-2.35-5.71-5.54-5.71-5.54,2.41-5.54,5.71,2.35,5.71,5.54,5.71Z"/>
        <path class="cls-4" d="M219.82,119.84v-19.67c0-.64.52-1.16,1.16-1.16s1.16.52,1.16,1.16v11.86l7.31-6.09c.23-.17.46-.26.73-.26.75,0,1.16.58,1.16,1.13,0,.35-.12.67-.41.9l-4.73,3.89,5.48,7.66c.12.17.17.38.17.61,0,.61-.55,1.13-1.16,1.13-.41,0-.75-.23-.96-.52l-5.28-7.43-2.32,1.92v4.87c0,.64-.52,1.16-1.16,1.16s-1.16-.52-1.16-1.16Z"/>
        <path class="cls-4" d="M233.88,113.35c0-4.82,3.57-7.92,7.69-7.92,4.79,0,7.6,3.45,7.6,7.4,0,.67-.44,1.39-1.45,1.39h-11.4c.35,2.9,2.5,4.84,5.42,4.84,1.74,0,3.28-.64,4.41-1.86.17-.2.46-.32.78-.32.58,0,1.1.52,1.1,1.13,0,.32-.12.61-.32.81-1.42,1.48-3.48,2.44-5.98,2.44-4.64,0-7.86-3.39-7.86-7.92ZM246.73,112.13c-.2-3.02-2.61-4.5-5.16-4.5s-4.73,1.74-5.19,4.5h10.36Z"/>
        <path class="cls-4" d="M264.36,119.84v-11.89h-2.9c-.58,0-1.07-.52-1.07-1.1s.49-1.04,1.07-1.04h4.15c.58,0,1.07.49,1.07,1.04v13c0,.64-.52,1.16-1.16,1.16s-1.16-.52-1.16-1.16ZM265.55,99.6c1.07,0,1.83.78,1.83,1.8s-.75,1.83-1.83,1.83-1.8-.78-1.8-1.83.75-1.8,1.8-1.8Z"/>
        <path class="cls-4" d="M273.23,116.31v-8.47h-2.23c-.55,0-1.01-.49-1.01-1.04,0-.52.46-.99,1.01-.99h2.38v-3.1c0-.58.49-1.1,1.1-1.1s1.07.52,1.07,1.1v3.1h3.74c.55,0,1.02.46,1.02.99,0,.55-.46,1.04-1.02,1.04h-3.74v8.47c0,1.62.84,2.44,2.44,2.44h1.16c.58,0,1.07.41,1.07,1.07,0,.55-.49,1.07-1.07,1.07h-1.16c-2.93,0-4.76-1.62-4.76-4.58Z"/>
        <path class="cls-4" d="M291.53,113.35c0-4.82,3.57-7.92,7.69-7.92,4.79,0,7.6,3.45,7.6,7.4,0,.67-.43,1.39-1.45,1.39h-11.4c.35,2.9,2.49,4.84,5.42,4.84,1.74,0,3.28-.64,4.41-1.86.17-.2.46-.32.78-.32.58,0,1.1.52,1.1,1.13,0,.32-.12.61-.32.81-1.42,1.48-3.48,2.44-5.98,2.44-4.64,0-7.86-3.39-7.86-7.92ZM304.38,112.13c-.2-3.02-2.61-4.5-5.16-4.5s-4.73,1.74-5.19,4.5h10.36Z"/>
        <path class="cls-4" d="M309.42,113.35c0-4.55,3.42-7.92,7.92-7.92,2.17,0,4.03.78,5.39,2.09v-.67c0-.64.52-1.16,1.16-1.16s1.16.52,1.16,1.16v11.08c0,.64.32.93.96.93s1.01.49,1.01.96c0,.87-.64,1.19-1.3,1.19h-.55c-1.13,0-2.32-.67-2.44-1.83-1.3,1.3-3.19,2.09-5.39,2.09-4.55,0-7.92-3.34-7.92-7.92ZM317.34,119.06c3.19,0,5.54-2.35,5.54-5.71s-2.35-5.71-5.54-5.71-5.54,2.41-5.54,5.71,2.35,5.71,5.54,5.71Z"/>
        <path class="cls-4" d="M329.81,119.06c-.17-.2-.32-.46-.32-.78,0-.61.52-1.13,1.16-1.13.32,0,.58.12.84.32,1.07.93,2.58,1.6,3.83,1.6,2.35,0,3.51-1.16,3.51-2.38s-1.02-1.97-2.35-2.35l-2.76-.75c-1.94-.52-3.54-1.8-3.54-4,0-2.55,2.44-4.15,5.4-4.15,1.71,0,3.54.61,4.58,1.54.23.2.43.55.43.9,0,.61-.49,1.13-1.07,1.13-.29,0-.52-.15-.72-.29-.75-.55-1.86-1.13-3.22-1.13-1.89,0-3.02.84-3.02,2,0,1.01.78,1.54,1.88,1.86l2.73.75c2.06.58,4.03,1.97,4.03,4.5,0,2.79-2.38,4.58-5.89,4.58-2.06,0-4.26-.9-5.51-2.2Z"/>
        <path class="cls-4" d="M346.77,126.54c0-.17.03-.35.09-.46l2.29-5.37-5.95-13.29c-.06-.15-.12-.32-.12-.52,0-.67.55-1.22,1.25-1.22.49,0,.9.29,1.1.72l4.99,11.34,4.84-11.31c.17-.44.64-.75,1.16-.75.7,0,1.28.55,1.28,1.25,0,.2-.06.38-.12.52l-8.64,19.55c-.17.38-.58.67-1.04.67-.64,0-1.13-.52-1.13-1.13Z"/>
      </g>
      <rect class="cls-1" width="483.85" height="135.82"/>
    </g>
  </g>
</svg>